<svg width="16" height="16" viewBox="0 0 16 16" fill="none" xmlns="http://www.w3.org/2000/svg">
<path d="M15.1753 0.993438L14.8117 0.363619C14.7152 0.196582 14.5563 0.0746981 14.3701 0.0247817C14.1838 -0.0251384 13.9853 0.000996179 13.8182 0.0974363L13.4466 0.311618C13.2764 0.164222 13.0644 0.0736691 12.8403 0.0526109C12.6162 0.0315527 12.391 0.0810399 12.1964 0.194164L6.75383 3.33635C6.6439 3.27246 6.51906 3.23867 6.3919 3.23835C6.26474 3.23802 6.13972 3.27118 6.02946 3.33453L5.71419 3.51635C5.54732 3.61286 5.42557 3.77166 5.37575 3.95787C5.3259 4.14409 5.35201 4.34249 5.44837 4.50944L6.90292 7.02835C6.95063 7.11115 7.01415 7.18377 7.08994 7.24202C7.16572 7.30024 7.25223 7.34301 7.34452 7.36777C7.43681 7.39257 7.5331 7.39893 7.62783 7.3865C7.72259 7.37402 7.81397 7.34304 7.89674 7.29526L8.21165 7.11344C8.32121 7.04941 8.41212 6.95784 8.47536 6.84781C8.53856 6.73773 8.5719 6.61308 8.57201 6.48617L10.6313 5.29853C10.7337 5.35039 10.8418 5.38991 10.9535 5.41635C11.3994 6.07071 11.6374 6.84446 11.6364 7.63635C11.6343 8.63657 11.2579 9.59981 10.5811 10.3364C9.90445 11.0729 8.97648 11.5294 7.98001 11.616C7.75641 11.5324 7.51001 11.5332 7.28692 11.6182C6.68346 11.5659 6.09994 11.3766 5.58073 11.0647C5.06153 10.7528 4.62041 10.3264 4.29091 9.81817H5.09092C5.28379 9.81817 5.46877 9.74156 5.60517 9.60515C5.74157 9.46875 5.81819 9.28377 5.81819 9.0909V8.72726C5.81819 8.53439 5.74157 8.34941 5.60517 8.21301C5.46877 8.07661 5.28379 7.99999 5.09092 7.99999H0.727274C0.53439 7.99999 0.349404 8.07661 0.213015 8.21301C0.0766219 8.34941 0 8.53439 0 8.72726V9.0909C0 9.28377 0.0766219 9.46875 0.213015 9.60515C0.349404 9.74156 0.53439 9.81817 0.727274 9.81817H1.85855C2.19206 10.6941 2.71931 11.4834 3.40084 12.1269C4.08233 12.7704 4.90052 13.2515 5.79419 13.5342L5.61637 13.8182H3.27273C2.88695 13.8182 2.51699 13.9714 2.24421 14.2442C1.97143 14.517 1.81818 14.8869 1.81818 15.2727C1.81818 15.4656 1.89481 15.6506 2.0312 15.787C2.16759 15.9234 2.35257 16 2.54546 16H12.7273C12.9202 16 13.1051 15.9234 13.2415 15.787C13.3779 15.6506 13.4546 15.4656 13.4546 15.2727C13.4546 14.8869 13.3013 14.517 13.0285 14.2442C12.7558 13.9714 12.3858 13.8182 12 13.8182H9.65638L9.47747 13.5324C10.7317 13.1352 11.8276 12.3504 12.6076 11.2909C13.3876 10.2315 13.8114 8.95195 13.8182 7.63635C13.8205 6.37984 13.4352 5.15322 12.7149 4.12362C12.7149 4.11271 12.7175 4.10217 12.7182 4.09126L14.0149 3.34544C14.21 3.23318 14.3652 3.06282 14.4589 2.85814C14.5526 2.65346 14.58 2.42465 14.5375 2.20362L14.9091 1.98726C15.0759 1.89047 15.1975 1.73156 15.2474 1.5453C15.2973 1.35905 15.2714 1.16062 15.1753 0.993438ZM7.5331 6.66544L6.07855 4.14617L6.39346 3.96435L7.84801 6.48362L7.5331 6.66544ZM11.2727 4.72726C11.1289 4.72726 10.9883 4.6846 10.8687 4.60468C10.7491 4.52478 10.6559 4.41118 10.6008 4.27831C10.5458 4.1454 10.5314 3.99918 10.5594 3.85809C10.5875 3.71704 10.6568 3.58744 10.7585 3.48573C10.8602 3.38402 10.9898 3.31475 11.1308 3.28667C11.2719 3.25864 11.4182 3.27304 11.5511 3.32806C11.6839 3.38311 11.7975 3.47635 11.8774 3.59595C11.9574 3.71555 12 3.85613 12 3.99998C12 4.19286 11.9234 4.37784 11.787 4.51424C11.6506 4.65064 11.4656 4.72726 11.2727 4.72726ZM0.727274 8.72726H5.09092V9.0909H0.727274V8.72726ZM2.64364 9.81817H3.44764C3.76379 10.4284 4.2096 10.9621 4.75386 11.3818C5.29812 11.8015 5.92761 12.097 6.59819 12.2476L6.19419 12.8942C5.41157 12.6763 4.6871 12.2873 4.07306 11.7554C3.45906 11.2234 2.97084 10.5618 2.64364 9.81817ZM12 14.5455C12.1929 14.5455 12.3779 14.6221 12.5143 14.7585C12.6507 14.8949 12.7273 15.0799 12.7273 15.2727H2.54546C2.54546 15.0799 2.62208 14.8949 2.75848 14.7585C2.89488 14.6221 3.07986 14.5455 3.27273 14.5455H5.81819C5.87986 14.5455 5.94052 14.5298 5.99448 14.4999C6.04841 14.47 6.09386 14.4268 6.12655 14.3745L7.32655 12.452C7.35917 12.3994 7.40466 12.356 7.45877 12.3258C7.51285 12.2957 7.57375 12.2799 7.63565 12.2799C7.69754 12.2799 7.75845 12.2957 7.81252 12.3258C7.86663 12.356 7.91212 12.3994 7.94474 12.452L9.14474 14.3742C9.1775 14.4268 9.22318 14.4701 9.27739 14.5001C9.33161 14.53 9.39259 14.5457 9.45456 14.5455H12ZM13.0909 7.63635C13.0843 8.82952 12.6886 9.98796 11.9638 10.9358C11.239 11.8836 10.2247 12.569 9.07492 12.888L8.67092 12.2418C9.71699 12.0058 10.652 11.4216 11.3228 10.585C11.9937 9.74832 12.3606 8.70875 12.3637 7.63635C12.3643 6.8397 12.1606 6.05617 11.772 5.36071C12.0046 5.27468 12.2111 5.13046 12.372 4.9418C12.8442 5.76122 13.0922 6.69061 13.0909 7.63635ZM13.8182 2.49308C13.8062 2.53916 13.7852 2.58242 13.7565 2.62036C13.7277 2.65831 13.6917 2.69019 13.6506 2.71417L12.5626 3.3418C12.4733 3.16609 12.3492 3.01042 12.1978 2.88426C12.0464 2.75811 11.8709 2.66415 11.682 2.6081C11.493 2.55205 11.2947 2.5351 11.099 2.55828C10.9033 2.58146 10.7143 2.64428 10.5437 2.74291C10.3731 2.84154 10.2244 2.97391 10.1067 3.13195C9.98892 3.28995 9.90463 3.47031 9.85892 3.66202C9.81318 3.85369 9.80703 4.05271 9.84081 4.24686C9.87456 4.441 9.94754 4.62624 10.0553 4.79126L8.29601 5.8058L7.2051 3.91489L12.5611 0.823983C12.6443 0.776245 12.743 0.763336 12.8358 0.788059C12.9285 0.812783 13.0076 0.873143 13.056 0.955983L13.7833 2.21889C13.807 2.26001 13.8222 2.30542 13.8282 2.35248C13.8342 2.39955 13.8308 2.44734 13.8182 2.49308ZM14.2302 1.53889L13.8666 0.90871L14.1818 0.727255L14.5455 1.35707L14.2302 1.53889Z" fill="#A90466"/>
<path d="M7.63512 13.8181C7.83596 13.8181 7.99876 13.6553 7.99876 13.4545C7.99876 13.2536 7.83596 13.0908 7.63512 13.0908C7.43428 13.0908 7.27148 13.2536 7.27148 13.4545C7.27148 13.6553 7.43428 13.8181 7.63512 13.8181Z" fill="#A90466"/>
</svg>
