<svg width="21" height="24" viewBox="0 0 21 24" fill="none" xmlns="http://www.w3.org/2000/svg">
<path d="M20.7693 6.80597C20.7693 6.72637 20.8489 6.64677 20.8489 6.56716C20.8489 6.56716 20.8489 6.56716 20.8489 6.48756C20.8489 6.48756 20.8489 6.48756 20.8489 6.40796C20.8489 6.32836 20.8489 6.24876 20.8489 6.16915C20.8489 6.16915 20.8489 6.16915 20.8489 6.08955C20.8489 6.00995 20.7693 5.93035 20.7693 5.85075C20.6897 5.77114 20.6897 5.77114 20.6101 5.69154L11.8538 0.119403C11.615 -0.039801 11.217 -0.039801 10.9782 0.119403L0.629956 7.28358L0.550354 7.36318C0.550354 7.36318 0.550354 7.36318 0.470752 7.36318C0.39115 7.44279 0.39115 7.52239 0.311548 7.60199C0.311548 7.60199 0.311548 7.60199 0.311548 7.68159C0.152344 7.9204 0.152344 8 0.152344 8.0796V12.8557V17.6318C0.152344 17.8706 0.311548 18.1891 0.550354 18.2687L9.30657 23.8408C9.46578 23.9204 9.62498 24 9.70458 24C9.86379 24 10.023 23.9204 10.1822 23.8408L20.5305 16.6766C20.6897 16.5174 20.8489 16.3582 20.8489 16.1194C20.8489 15.8806 20.7693 15.6418 20.6101 15.4826C19.8936 14.7662 19.7344 13.7313 20.212 12.7761L20.7693 11.5821C20.7693 11.5025 20.8489 11.4229 20.8489 11.3433V11.2637C20.8489 11.1841 20.8489 11.0249 20.7693 10.9453V10.8657C20.7693 10.7861 20.6897 10.7065 20.6101 10.6269C19.8936 9.91045 19.7344 8.87562 20.212 7.9204L20.7693 6.80597ZM18.9384 11.1045L9.70458 17.4726L1.74438 12.4577V9.59204L9.30657 14.3682C9.46578 14.4478 9.62498 14.5274 9.70458 14.5274C9.86379 14.5274 10.023 14.4478 10.1822 14.3682L18.3812 8.71642C18.3016 9.51244 18.4608 10.3085 18.9384 11.1045ZM9.70458 22.2488L1.74438 17.2338V14.3682L9.30657 19.1443C9.46578 19.2239 9.62498 19.3035 9.70458 19.3035C9.86379 19.3035 10.023 19.2239 10.1822 19.1443L18.3812 13.4925C18.3016 14.3682 18.4608 15.2438 18.9384 15.9602L9.70458 22.2488Z" fill="#545760"/>
</svg>
