<svg width="482" height="402" viewBox="0 0 482 402" fill="none" xmlns="http://www.w3.org/2000/svg">
<mask id="mask0_3763_6154" style="mask-type:luminance" maskUnits="userSpaceOnUse" x="-37" y="0" width="519" height="402">
<path d="M-36.4395 0.532913L-37 400.344L480.547 401.069L481.107 1.25847L-36.4395 0.532913Z" fill="white"/>
</mask>
<g mask="url(#mask0_3763_6154)">
<path d="M-0.185465 376.437C-1.19546 376.274 -2.146 376.961 -2.30854 377.971C-2.47108 378.981 -1.78407 379.931 -0.774075 380.093C0.235923 380.256 1.18645 379.569 1.34899 378.559C1.51153 377.55 0.824533 376.599 -0.185465 376.437Z" fill="white"/>
<path d="M-0.15812 354.214C-1.16812 354.051 -2.11865 354.738 -2.28119 355.748C-2.44373 356.758 -1.75673 357.708 -0.74673 357.87C0.263268 358.033 1.2138 357.346 1.37634 356.336C1.53888 355.327 0.851878 354.376 -0.15812 354.214Z" fill="white"/>
<path d="M-0.126867 331.991C-1.13686 331.829 -2.0874 332.515 -2.24994 333.525C-2.41248 334.535 -1.72547 335.485 -0.715477 335.648C0.294521 335.81 1.24505 335.123 1.40759 334.114C1.57013 333.104 0.883131 332.154 -0.126867 331.991Z" fill="white"/>
<path d="M-0.0917171 309.769C-1.10172 309.606 -2.05225 310.293 -2.21479 311.303C-2.37733 312.312 -1.69032 313.263 -0.680327 313.425C0.329671 313.588 1.2802 312.901 1.44274 311.891C1.60528 310.881 0.918281 309.931 -0.0917171 309.769Z" fill="white"/>
<path d="M-0.058514 287.546C-1.06851 287.383 -2.01904 288.07 -2.18158 289.08C-2.34412 290.09 -1.65712 291.04 -0.647124 291.202C0.362874 291.365 1.31341 290.678 1.47595 289.668C1.63849 288.659 0.951484 287.708 -0.058514 287.546Z" fill="white"/>
<path d="M1.52561 267.158C1.52704 266.135 0.698887 265.305 -0.324124 265.303C-1.34714 265.302 -2.17761 266.13 -2.17904 267.153C-2.18048 268.175 -1.35233 269.006 -0.329317 269.007C0.693695 269.008 1.52417 268.18 1.52561 267.158Z" fill="white"/>
<path d="M0.0468604 243.114C-0.957569 242.92 -1.9293 243.576 -2.12354 244.581C-2.31779 245.585 -1.66099 246.556 -0.656565 246.75C0.347864 246.945 1.31958 246.288 1.51382 245.284C1.70807 244.28 1.05129 243.308 0.0468604 243.114Z" fill="white"/>
<path d="M0.0303661 220.88C-0.979219 220.715 -1.93166 221.399 -2.09696 222.409C-2.26226 223.418 -1.57783 224.37 -0.568244 224.535C0.441341 224.701 1.39377 224.016 1.55907 223.007C1.72437 221.998 1.03995 221.045 0.0303661 220.88Z" fill="white"/>
<path d="M-0.00449389 198.654C-1.01976 198.528 -1.94463 199.249 -2.07024 200.264C-2.19586 201.279 -1.47466 202.204 -0.459392 202.329C0.555875 202.455 1.48074 201.734 1.60636 200.719C1.73197 199.704 1.01077 198.779 -0.00449389 198.654Z" fill="white"/>
<path d="M0.0967589 176.434C-0.912826 176.269 -1.86525 176.953 -2.03056 177.963C-2.19586 178.972 -1.51144 179.924 -0.501851 180.089C0.507734 180.255 1.46018 179.57 1.62548 178.561C1.79078 177.552 1.10634 176.6 0.0967589 176.434Z" fill="white"/>
<path d="M0.126056 154.213C-0.883529 154.048 -1.83597 154.732 -2.00127 155.741C-2.16657 156.75 -1.48214 157.703 -0.472554 157.868C0.537031 158.033 1.48947 157.349 1.65477 156.339C1.82008 155.33 1.13564 154.378 0.126056 154.213Z" fill="white"/>
<path d="M-0.136624 131.971C0.886299 131.973 1.71454 132.803 1.71311 133.826C1.71167 134.849 0.881106 135.676 -0.141817 135.675C-1.16496 135.674 -1.99298 134.843 -1.99154 133.821C-1.99011 132.798 -1.15977 131.97 -0.136624 131.971Z" fill="white"/>
<path d="M0.18465 109.768C-0.824935 109.603 -1.77735 110.287 -1.94265 111.296C-2.10795 112.306 -1.42355 113.258 -0.41396 113.423C0.595624 113.588 1.54807 112.904 1.71337 111.895C1.87867 110.885 1.19423 109.933 0.18465 109.768Z" fill="white"/>
<path d="M0.2159 87.5453C-0.793685 87.38 -1.7461 88.0643 -1.9114 89.0736C-2.0767 90.0829 -1.3923 91.035 -0.38271 91.2003C0.626874 91.3655 1.57932 90.6813 1.74462 89.672C1.90992 88.6627 1.22548 87.7105 0.2159 87.5453Z" fill="white"/>
<path d="M0.245223 65.3236C-0.764361 65.1583 -1.7168 65.8426 -1.8821 66.8519C-2.04741 67.8612 -1.36297 68.8134 -0.353387 68.9786C0.656198 69.1439 1.60861 68.4596 1.77391 67.4503C1.93922 66.441 1.25481 65.4889 0.245223 65.3236Z" fill="white"/>
<path d="M0.289162 43.0957C-0.720836 42.9332 -1.67137 43.62 -1.83391 44.6297C-1.99645 45.6394 -1.30945 46.5897 -0.299448 46.7522C0.71055 46.9147 1.66106 46.2279 1.8236 45.2181C1.98614 44.2084 1.29916 43.2582 0.289162 43.0957Z" fill="white"/>
<path d="M0.316479 20.873C-0.693519 20.7105 -1.64406 21.3973 -1.8066 22.407C-1.96914 23.4167 -1.28213 24.367 -0.272131 24.5295C0.737867 24.692 1.68841 24.0052 1.85095 22.9955C2.01349 21.9858 1.32648 21.0355 0.316479 20.873Z" fill="white"/>
</g>
<mask id="mask1_3763_6154" style="mask-type:luminance" maskUnits="userSpaceOnUse" x="-37" y="0" width="519" height="402">
<path d="M-36.4395 0.532913L-37 400.344L480.547 401.069L481.107 1.25847L-36.4395 0.532913Z" fill="white"/>
</mask>
<g mask="url(#mask1_3763_6154)">
<path d="M23.5862 389.41C23.5876 388.387 22.7594 387.557 21.7364 387.556C20.7134 387.554 19.8829 388.382 19.8815 389.405C19.8801 390.428 20.7082 391.258 21.7312 391.259C22.7542 391.261 23.5847 390.433 23.5862 389.41Z" fill="white"/>
<path d="M23.6194 367.189C23.6208 366.166 22.7926 365.336 21.7696 365.334C20.7466 365.333 19.9161 366.161 19.9147 367.183C19.9133 368.206 20.7414 369.036 21.7644 369.038C22.7874 369.039 23.6179 368.211 23.6194 367.189Z" fill="white"/>
<path d="M23.6487 344.967C23.6501 343.944 22.8219 343.114 21.7989 343.112C20.7759 343.111 19.9454 343.939 19.944 344.962C19.9426 345.984 20.7707 346.815 21.7937 346.816C22.8167 346.818 23.6472 345.99 23.6487 344.967Z" fill="white"/>
<path d="M23.6799 322.745C23.6813 321.722 22.8532 320.892 21.8302 320.891C20.8072 320.889 19.9767 321.717 19.9753 322.74C19.9738 323.763 20.802 324.593 21.825 324.594C22.848 324.596 23.6785 323.768 23.6799 322.745Z" fill="white"/>
<path d="M23.7112 300.522C23.7126 299.499 22.8844 298.669 21.8614 298.668C20.8384 298.666 20.0079 299.494 20.0065 300.517C20.0051 301.54 20.8332 302.37 21.8562 302.371C22.8792 302.373 23.7097 301.545 23.7112 300.522Z" fill="white"/>
<path d="M23.7424 278.3C23.7438 277.278 22.9157 276.447 21.8927 276.446C20.8697 276.445 20.0392 277.272 20.0378 278.295C20.0363 279.318 20.8645 280.148 21.8875 280.15C22.9105 280.151 23.741 279.323 23.7424 278.3Z" fill="white"/>
<path d="M23.7737 256.079C23.7751 255.056 22.9469 254.226 21.9239 254.224C20.9009 254.223 20.0704 255.051 20.069 256.073C20.0676 257.096 20.8957 257.926 21.9187 257.928C22.9417 257.929 23.7722 257.101 23.7737 256.079Z" fill="white"/>
<path d="M23.8049 233.856C23.8063 232.833 22.9782 232.003 21.9552 232.001C20.9322 232 20.1017 232.828 20.1003 233.85C20.0988 234.873 20.927 235.703 21.95 235.705C22.973 235.706 23.8035 234.878 23.8049 233.856Z" fill="white"/>
<path d="M23.8362 211.634C23.8376 210.611 23.0094 209.781 21.9864 209.779C20.9634 209.778 20.1329 210.606 20.1315 211.629C20.1301 212.651 20.9582 213.482 21.9812 213.483C23.0042 213.484 23.8347 212.657 23.8362 211.634Z" fill="white"/>
<path d="M23.8674 189.412C23.8688 188.389 23.0407 187.559 22.0177 187.558C20.9947 187.556 20.1642 188.384 20.1628 189.407C20.1613 190.43 20.9895 191.26 22.0125 191.261C23.0355 191.263 23.866 190.435 23.8674 189.412Z" fill="white"/>
<path d="M23.8987 167.191C23.9001 166.168 23.0719 165.338 22.0489 165.336C21.0259 165.335 20.1954 166.163 20.194 167.185C20.1926 168.208 21.0207 169.038 22.0437 169.04C23.0667 169.041 23.8972 168.213 23.8987 167.191Z" fill="white"/>
<path d="M23.9299 144.968C23.9313 143.945 23.1032 143.115 22.0802 143.113C21.0572 143.112 20.2267 143.94 20.2253 144.963C20.2238 145.985 21.052 146.816 22.075 146.817C23.098 146.818 23.9285 145.991 23.9299 144.968Z" fill="white"/>
<path d="M23.9612 122.746C23.9626 121.723 23.1344 120.893 22.1114 120.892C21.0884 120.89 20.2579 121.718 20.2565 122.741C20.2551 123.764 21.0832 124.594 22.1062 124.595C23.1292 124.597 23.9597 123.769 23.9612 122.746Z" fill="white"/>
<path d="M23.9905 100.524C23.9919 99.5013 23.1637 98.671 22.1407 98.6696C21.1177 98.6681 20.2872 99.4961 20.2858 100.519C20.2844 101.542 21.1125 102.372 22.1355 102.373C23.1585 102.375 23.989 101.547 23.9905 100.524Z" fill="white"/>
<path d="M24.0237 78.3023C24.0251 77.2796 23.1969 76.4493 22.1739 76.4479C21.1509 76.4465 20.3204 77.2744 20.319 78.2971C20.3176 79.3198 21.1457 80.1501 22.1687 80.1515C23.1917 80.153 24.0222 79.325 24.0237 78.3023Z" fill="white"/>
<path d="M24.0549 56.0806C24.0563 55.0579 23.2282 54.2277 22.2052 54.2262C21.1822 54.2248 20.3517 55.0527 20.3503 56.0754C20.3488 57.0982 21.177 57.9284 22.2 57.9298C23.223 57.9313 24.0535 57.1033 24.0549 56.0806Z" fill="white"/>
<path d="M24.0842 33.858C24.0856 32.8352 23.2575 32.005 22.2345 32.0036C21.2115 32.0021 20.381 32.83 20.3795 33.8528C20.3781 34.8755 21.2063 35.7058 22.2293 35.7072C23.2523 35.7086 24.0828 34.8807 24.0842 33.858Z" fill="white"/>
<path d="M24.1174 11.6363C24.1188 10.6136 23.2907 9.78333 22.2677 9.7819C21.2447 9.78046 20.4142 10.6084 20.4128 11.6311C20.4113 12.6538 21.2395 13.4841 22.2625 13.4855C23.2855 13.4869 24.116 12.659 24.1174 11.6363Z" fill="white"/>
</g>
<mask id="mask2_3763_6154" style="mask-type:luminance" maskUnits="userSpaceOnUse" x="-37" y="0" width="519" height="402">
<path d="M-36.4395 0.532913L-37 400.344L480.547 401.069L481.107 1.25847L-36.4395 0.532913Z" fill="white"/>
</mask>
<g mask="url(#mask2_3763_6154)">
<path d="M45.8283 378.329C45.8298 377.306 45.0016 376.476 43.9786 376.475C42.9556 376.473 42.1251 377.301 42.1237 378.324C42.1223 379.347 42.9504 380.177 43.9734 380.178C44.9964 380.18 45.8269 379.352 45.8283 378.329Z" fill="white"/>
<path d="M45.8615 356.107C45.863 355.085 45.0348 354.255 44.0118 354.253C42.9888 354.252 42.1583 355.08 42.1569 356.102C42.1555 357.125 42.9836 357.955 44.0066 357.957C45.0296 357.958 45.8601 357.13 45.8615 356.107Z" fill="white"/>
<path d="M45.8908 333.886C45.8923 332.863 45.0641 332.033 44.0411 332.031C43.0181 332.03 42.1876 332.858 42.1862 333.881C42.1848 334.903 43.0129 335.734 44.0359 335.735C45.0589 335.736 45.8894 334.909 45.8908 333.886Z" fill="white"/>
<path d="M45.9221 311.664C45.9235 310.641 45.0954 309.811 44.0724 309.81C43.0494 309.808 42.2189 310.636 42.2174 311.659C42.216 312.682 43.0442 313.512 44.0672 313.513C45.0902 313.515 45.9207 312.687 45.9221 311.664Z" fill="white"/>
<path d="M45.9533 289.441C45.9548 288.418 45.1266 287.588 44.1036 287.587C43.0806 287.585 42.2501 288.413 42.2487 289.436C42.2473 290.459 43.0754 291.289 44.0984 291.29C45.1214 291.292 45.9519 290.464 45.9533 289.441Z" fill="white"/>
<path d="M45.9846 267.219C45.986 266.197 45.1579 265.366 44.1349 265.365C43.1119 265.363 42.2814 266.191 42.2799 267.214C42.2785 268.237 43.1067 269.067 44.1297 269.069C45.1527 269.07 45.9832 268.242 45.9846 267.219Z" fill="white"/>
<path d="M46.0158 244.998C46.0173 243.975 45.1891 243.145 44.1661 243.143C43.1431 243.142 42.3126 243.97 42.3112 244.992C42.3098 246.015 43.1379 246.845 44.1609 246.847C45.1839 246.848 46.0144 246.02 46.0158 244.998Z" fill="white"/>
<path d="M46.0471 222.774C46.0485 221.752 45.2204 220.922 44.1974 220.92C43.1744 220.919 42.3439 221.747 42.3424 222.769C42.341 223.792 43.1692 224.622 44.1922 224.624C45.2152 224.625 46.0457 223.797 46.0471 222.774Z" fill="white"/>
<path d="M46.0783 200.553C46.0798 199.53 45.2516 198.7 44.2286 198.698C43.2056 198.697 42.3751 199.525 42.3737 200.548C42.3723 201.57 43.2004 202.401 44.2234 202.402C45.2464 202.403 46.0769 201.576 46.0783 200.553Z" fill="white"/>
<path d="M46.1096 178.331C46.111 177.308 45.2829 176.478 44.2599 176.477C43.2369 176.475 42.4064 177.303 42.4049 178.326C42.4035 179.349 43.2317 180.179 44.2547 180.18C45.2777 180.182 46.1082 179.354 46.1096 178.331Z" fill="white"/>
<path d="M46.1408 156.109C46.1423 155.087 45.3141 154.256 44.2911 154.255C43.2681 154.254 42.4376 155.082 42.4362 156.104C42.4348 157.127 43.2629 157.957 44.2859 157.959C45.3089 157.96 46.1394 157.132 46.1408 156.109Z" fill="white"/>
<path d="M44.3224 132.033C45.3453 132.035 46.1735 132.865 46.1721 133.888C46.1707 134.911 45.3401 135.738 44.3172 135.737C43.294 135.736 42.466 134.905 42.4674 133.883C42.4689 132.86 43.2994 132.032 44.3224 132.033Z" fill="white"/>
<path d="M46.2033 111.666C46.2048 110.643 45.3766 109.813 44.3536 109.812C43.3306 109.81 42.5001 110.638 42.4987 111.661C42.4973 112.684 43.3254 113.514 44.3484 113.515C45.3714 113.517 46.2019 112.689 46.2033 111.666Z" fill="white"/>
<path d="M46.2326 89.4429C46.2341 88.4202 45.4059 87.59 44.3829 87.5885C43.3599 87.5871 42.5294 88.415 42.528 89.4377C42.5266 90.4605 43.3547 91.2907 44.3777 91.2921C45.4007 91.2936 46.2312 90.4657 46.2326 89.4429Z" fill="white"/>
<path d="M46.2658 67.2213C46.2673 66.1985 45.4391 65.3683 44.4161 65.3669C43.3931 65.3654 42.5626 66.1934 42.5612 67.2161C42.5598 68.2388 43.3879 69.069 44.4109 69.0705C45.4339 69.0719 46.2644 68.244 46.2658 67.2213Z" fill="white"/>
<path d="M46.2971 44.9996C46.2985 43.9769 45.4704 43.1466 44.4474 43.1452C43.4244 43.1437 42.5939 43.9717 42.5924 44.9944C42.591 46.0171 43.4192 46.8474 44.4422 46.8488C45.4652 46.8502 46.2957 46.0223 46.2971 44.9996Z" fill="white"/>
<path d="M46.3264 22.7779C46.3278 21.7552 45.4997 20.9249 44.4767 20.9235C43.4536 20.922 42.6232 21.75 42.6217 22.7727C42.6203 23.7954 43.4485 24.6257 44.4715 24.6271C45.4945 24.6285 46.325 23.8006 46.3264 22.7779Z" fill="white"/>
</g>
<mask id="mask3_3763_6154" style="mask-type:luminance" maskUnits="userSpaceOnUse" x="-37" y="0" width="519" height="402">
<path d="M-36.4395 0.532913L-37 400.344L480.547 401.069L481.107 1.25847L-36.4395 0.532913Z" fill="white"/>
</mask>
<g mask="url(#mask3_3763_6154)">
<path d="M90.2854 378.392C90.2868 377.369 89.4586 376.539 88.4356 376.537C87.4126 376.536 86.5822 377.364 86.5807 378.386C86.5793 379.409 87.4074 380.239 88.4304 380.241C89.4535 380.242 90.2839 379.414 90.2854 378.392Z" fill="white"/>
<path d="M90.3186 356.17C90.32 355.147 89.4919 354.317 88.4688 354.316C87.4458 354.314 86.6154 355.142 86.6139 356.165C86.6125 357.188 87.4406 358.018 88.4636 358.019C89.4867 358.021 90.3171 357.193 90.3186 356.17Z" fill="white"/>
<path d="M90.3479 333.948C90.3493 332.926 89.5211 332.095 88.4981 332.094C87.4751 332.092 86.6447 332.92 86.6432 333.943C86.6418 334.966 87.4699 335.796 88.4929 335.798C89.516 335.799 90.3464 334.971 90.3479 333.948Z" fill="white"/>
<path d="M90.3791 311.727C90.3806 310.704 89.5524 309.874 88.5294 309.872C87.5064 309.871 86.6759 310.699 86.6745 311.721C86.673 312.744 87.5012 313.574 88.5242 313.576C89.5472 313.577 90.3777 312.749 90.3791 311.727Z" fill="white"/>
<path d="M90.4104 289.503C90.4118 288.481 89.5836 287.651 88.5606 287.649C87.5376 287.648 86.7072 288.476 86.7057 289.498C86.7043 290.521 87.5324 291.351 88.5554 291.353C89.5785 291.354 90.4089 290.526 90.4104 289.503Z" fill="white"/>
<path d="M90.4416 267.282C90.4431 266.259 89.6149 265.429 88.5919 265.427C87.5689 265.426 86.7384 266.254 86.737 267.277C86.7355 268.299 87.5637 269.13 88.5867 269.131C89.6097 269.132 90.4402 268.305 90.4416 267.282Z" fill="white"/>
<path d="M90.4729 245.06C90.4743 244.037 89.6461 243.207 88.6231 243.206C87.6001 243.204 86.7697 244.032 86.7682 245.055C86.7668 246.078 87.5949 246.908 88.6179 246.909C89.641 246.911 90.4714 246.083 90.4729 245.06Z" fill="white"/>
<path d="M90.5041 222.837C90.5056 221.814 89.6774 220.984 88.6544 220.983C87.6314 220.981 86.8009 221.809 86.7995 222.832C86.798 223.855 87.6262 224.685 88.6492 224.686C89.6722 224.688 90.5027 223.86 90.5041 222.837Z" fill="white"/>
<path d="M90.5354 200.615C90.5368 199.593 89.7086 198.762 88.6856 198.761C87.6626 198.759 86.8322 199.587 86.8307 200.61C86.8293 201.633 87.6574 202.463 88.6804 202.465C89.7035 202.466 90.5339 201.638 90.5354 200.615Z" fill="white"/>
<path d="M90.5666 178.394C90.5681 177.371 89.7399 176.541 88.7169 176.539C87.6939 176.538 86.8634 177.366 86.862 178.388C86.8605 179.411 87.6887 180.241 88.7117 180.243C89.7347 180.244 90.5652 179.416 90.5666 178.394Z" fill="white"/>
<path d="M90.5979 156.172C90.5993 155.149 89.7711 154.319 88.7481 154.318C87.7251 154.316 86.8947 155.144 86.8932 156.167C86.8918 157.189 87.7199 158.02 88.7429 158.021C89.766 158.023 90.5964 157.195 90.5979 156.172Z" fill="white"/>
<path d="M88.7794 132.096C89.8025 132.097 90.6306 132.928 90.6291 133.95C90.6277 134.973 89.7971 135.801 88.7742 135.799C87.7513 135.798 86.923 134.968 86.9245 133.945C86.9259 132.922 87.7562 132.094 88.7794 132.096Z" fill="white"/>
<path d="M90.6604 111.729C90.6618 110.706 89.8336 109.876 88.8106 109.874C87.7876 109.873 86.9572 110.701 86.9557 111.723C86.9543 112.746 87.7824 113.576 88.8054 113.578C89.8285 113.579 90.6589 112.751 90.6604 111.729Z" fill="white"/>
<path d="M90.6897 89.5054C90.6911 88.4827 89.8629 87.6525 88.8399 87.651C87.8169 87.6496 86.9865 88.4775 86.985 89.5002C86.9836 90.523 87.8117 91.3532 88.8347 91.3546C89.8578 91.3561 90.6882 90.5282 90.6897 89.5054Z" fill="white"/>
<path d="M90.7229 67.2838C90.7243 66.261 89.8961 65.4308 88.8731 65.4294C87.8501 65.4279 87.0197 66.2559 87.0182 67.2786C87.0168 68.3013 87.8449 69.1315 88.8679 69.133C89.891 69.1344 90.7214 68.3065 90.7229 67.2838Z" fill="white"/>
<path d="M90.7541 45.0621C90.7556 44.0394 89.9274 43.2091 88.9044 43.2077C87.8814 43.2062 87.0509 44.0342 87.0495 45.0569C87.048 46.0796 87.8762 46.9099 88.8992 46.9113C89.9222 46.9127 90.7527 46.0848 90.7541 45.0621Z" fill="white"/>
<path d="M90.7834 22.8404C90.7849 21.8177 89.9567 20.9874 88.9337 20.986C87.9107 20.9845 87.0802 21.8125 87.0788 22.8352C87.0773 23.8579 87.9055 24.6882 88.9285 24.6896C89.9515 24.691 90.782 23.8631 90.7834 22.8404Z" fill="white"/>
</g>
<mask id="mask4_3763_6154" style="mask-type:luminance" maskUnits="userSpaceOnUse" x="-37" y="0" width="519" height="402">
<path d="M-36.4395 0.532913L-37 400.344L480.547 401.069L481.107 1.25847L-36.4395 0.532913Z" fill="white"/>
</mask>
<g mask="url(#mask4_3763_6154)">
<path d="M68.0451 389.473C68.0466 388.45 67.2184 387.62 66.1954 387.618C65.1724 387.617 64.3419 388.445 64.3405 389.468C64.3391 390.49 65.1672 391.32 66.1902 391.322C67.2132 391.323 68.0437 390.495 68.0451 389.473Z" fill="white"/>
<path d="M68.0764 367.251C68.0778 366.228 67.2497 365.398 66.2267 365.396C65.2036 365.395 64.3732 366.223 64.3717 367.245C64.3703 368.268 65.1984 369.098 66.2215 369.1C67.2445 369.101 68.075 368.273 68.0764 367.251Z" fill="white"/>
<path d="M68.1076 345.029C68.1091 344.006 67.2809 343.176 66.2579 343.174C65.2349 343.173 64.4044 344.001 64.403 345.024C64.4016 346.046 65.2297 346.877 66.2527 346.878C67.2757 346.88 68.1062 346.052 68.1076 345.029Z" fill="white"/>
<path d="M68.1306 322.713C68.0823 321.692 67.2148 320.903 66.1929 320.951C65.1711 320.999 64.3819 321.867 64.4301 322.888C64.4784 323.91 65.3459 324.699 66.3678 324.65C67.3897 324.602 68.1789 323.735 68.1306 322.713Z" fill="white"/>
<path d="M68.1701 300.585C68.1716 299.562 67.3434 298.732 66.3204 298.73C65.2974 298.729 64.4669 299.557 64.4655 300.579C64.4641 301.602 65.2922 302.432 66.3152 302.434C67.3382 302.435 68.1687 301.607 68.1701 300.585Z" fill="white"/>
<path d="M68.2014 278.363C68.2028 277.34 67.3747 276.51 66.3517 276.508C65.3286 276.507 64.4982 277.335 64.4967 278.358C64.4953 279.38 65.3234 280.211 66.3465 280.212C67.3695 280.214 68.2 279.386 68.2014 278.363Z" fill="white"/>
<path d="M68.2326 256.141C68.2341 255.118 67.4059 254.288 66.3829 254.286C65.3599 254.285 64.5294 255.113 64.528 256.136C64.5266 257.158 65.3547 257.988 66.3777 257.99C67.4007 257.991 68.2312 257.163 68.2326 256.141Z" fill="white"/>
<path d="M68.2639 233.918C68.2653 232.895 67.4372 232.065 66.4142 232.064C65.3911 232.062 64.5607 232.89 64.5592 233.913C64.5578 234.936 65.3859 235.766 66.409 235.767C67.432 235.769 68.2625 234.941 68.2639 233.918Z" fill="white"/>
<path d="M68.2951 211.696C68.2966 210.674 67.4684 209.843 66.4454 209.842C65.4224 209.841 64.5919 210.668 64.5905 211.691C64.5891 212.714 65.4172 213.544 66.4402 213.546C67.4632 213.547 68.2937 212.719 68.2951 211.696Z" fill="white"/>
<path d="M68.3264 189.475C68.3278 188.452 67.4997 187.622 66.4767 187.62C65.4536 187.619 64.6232 188.447 64.6217 189.469C64.6203 190.492 65.4484 191.322 66.4715 191.324C67.4945 191.325 68.325 190.497 68.3264 189.475Z" fill="white"/>
<path d="M68.3576 167.253C68.3591 166.23 67.5309 165.4 66.5079 165.399C65.4849 165.397 64.6544 166.225 64.653 167.248C64.6516 168.271 65.4797 169.101 66.5027 169.102C67.5257 169.104 68.3562 168.276 68.3576 167.253Z" fill="white"/>
<path d="M66.7078 143.193C65.69 143.089 64.7806 143.829 64.6766 144.847C64.5726 145.864 65.3133 146.773 66.331 146.877C67.3488 146.981 68.2582 146.241 68.3622 145.223C68.4662 144.206 67.7255 143.297 66.7078 143.193Z" fill="white"/>
<path d="M68.4201 122.808C68.4216 121.785 67.5934 120.955 66.5704 120.954C65.5474 120.952 64.7169 121.78 64.7155 122.803C64.7141 123.826 65.5422 124.656 66.5652 124.657C67.5882 124.659 68.4187 123.831 68.4201 122.808Z" fill="white"/>
<path d="M68.4494 100.586C68.4509 99.5638 67.6227 98.7335 66.5997 98.7321C65.5767 98.7306 64.7462 99.5586 64.7448 100.581C64.7433 101.604 65.5715 102.434 66.5945 102.436C67.6175 102.437 68.448 101.609 68.4494 100.586Z" fill="white"/>
<path d="M68.469 78.3384C68.4567 77.3157 67.6174 76.4968 66.5945 76.5091C65.5715 76.5215 64.7523 77.3606 64.7647 78.3832C64.7771 79.4058 65.6164 80.2248 66.6393 80.2125C67.6622 80.2001 68.4814 79.361 68.469 78.3384Z" fill="white"/>
<path d="M68.5139 56.1431C68.5153 55.1204 67.6872 54.2902 66.6642 54.2887C65.6411 54.2873 64.8107 55.1152 64.8092 56.1379C64.8078 57.1607 65.6359 57.9909 66.659 57.9923C67.682 57.9938 68.5125 57.1658 68.5139 56.1431Z" fill="white"/>
<path d="M68.5432 33.92C68.5446 32.8973 67.7165 32.067 66.6935 32.0656C65.6704 32.0642 64.84 32.8921 64.8385 33.9148C64.8371 34.9375 65.6652 35.7678 66.6883 35.7692C67.7113 35.7706 68.5417 34.9427 68.5432 33.92Z" fill="white"/>
<path d="M68.5764 11.6983C68.5778 10.6756 67.7497 9.84534 66.7267 9.84391C65.7036 9.84248 64.8732 10.6704 64.8717 11.6931C64.8703 12.7158 65.6984 13.5461 66.7215 13.5475C67.7445 13.549 68.575 12.721 68.5764 11.6983Z" fill="white"/>
</g>
<mask id="mask5_3763_6154" style="mask-type:luminance" maskUnits="userSpaceOnUse" x="-37" y="0" width="519" height="402">
<path d="M-36.4395 0.532913L-37 400.344L480.547 401.069L481.107 1.25847L-36.4395 0.532913Z" fill="white"/>
</mask>
<g mask="url(#mask5_3763_6154)">
<path d="M112.498 389.535C112.5 388.512 111.672 387.682 110.649 387.68C109.626 387.679 108.795 388.507 108.794 389.53C108.792 390.552 109.62 391.383 110.643 391.384C111.666 391.385 112.497 390.557 112.498 389.535Z" fill="white"/>
<path d="M112.531 367.313C112.533 366.29 111.705 365.46 110.682 365.459C109.659 365.457 108.828 366.285 108.827 367.308C108.825 368.331 109.654 369.161 110.677 369.162C111.7 369.164 112.53 368.336 112.531 367.313Z" fill="white"/>
<path d="M112.561 345.091C112.562 344.069 111.734 343.238 110.711 343.237C109.688 343.236 108.858 344.063 108.856 345.086C108.855 346.109 109.683 346.939 110.706 346.941C111.729 346.942 112.559 346.114 112.561 345.091Z" fill="white"/>
<path d="M112.589 322.842C112.577 321.82 111.738 321.001 110.715 321.013C109.692 321.025 108.872 321.863 108.884 322.886C108.896 323.909 109.735 324.728 110.758 324.716C111.781 324.704 112.601 323.865 112.589 322.842Z" fill="white"/>
<path d="M112.623 300.647C112.625 299.624 111.797 298.794 110.774 298.792C109.751 298.791 108.92 299.619 108.919 300.641C108.917 301.664 109.745 302.494 110.768 302.496C111.791 302.497 112.622 301.669 112.623 300.647Z" fill="white"/>
<path d="M112.655 278.425C112.656 277.402 111.828 276.572 110.805 276.57C109.782 276.569 108.951 277.397 108.95 278.42C108.948 279.442 109.777 280.273 110.8 280.274C111.823 280.276 112.653 279.448 112.655 278.425Z" fill="white"/>
<path d="M112.686 256.203C112.687 255.18 111.859 254.35 110.836 254.349C109.813 254.347 108.983 255.175 108.981 256.198C108.98 257.221 109.808 258.051 110.831 258.052C111.854 258.054 112.684 257.226 112.686 256.203Z" fill="white"/>
<path d="M112.717 233.981C112.718 232.958 111.89 232.128 110.867 232.126C109.844 232.125 109.014 232.953 109.012 233.975C109.011 234.998 109.839 235.828 110.862 235.83C111.885 235.831 112.716 235.003 112.717 233.981Z" fill="white"/>
<path d="M112.748 211.759C112.75 210.736 111.922 209.906 110.899 209.904C109.876 209.903 109.045 210.731 109.044 211.754C109.042 212.776 109.87 213.607 110.893 213.608C111.916 213.609 112.747 212.782 112.748 211.759Z" fill="white"/>
<path d="M112.78 189.537C112.781 188.514 111.953 187.684 110.93 187.683C109.907 187.681 109.076 188.509 109.075 189.532C109.073 190.555 109.902 191.385 110.925 191.386C111.948 191.388 112.778 190.56 112.78 189.537Z" fill="white"/>
<path d="M112.811 167.315C112.812 166.292 111.984 165.462 110.961 165.461C109.938 165.459 109.108 166.287 109.106 167.31C109.105 168.333 109.933 169.163 110.956 169.164C111.979 169.166 112.809 168.338 112.811 167.315Z" fill="white"/>
<path d="M112.842 145.092C112.843 144.07 112.015 143.239 110.992 143.238C109.969 143.237 109.139 144.064 109.137 145.087C109.136 146.11 109.964 146.94 110.987 146.942C112.01 146.943 112.841 146.115 112.842 145.092Z" fill="white"/>
<path d="M112.873 122.871C112.875 121.848 112.047 121.018 111.024 121.016C110.001 121.015 109.17 121.843 109.169 122.865C109.167 123.888 109.995 124.718 111.018 124.72C112.041 124.721 112.872 123.893 112.873 122.871Z" fill="white"/>
<path d="M112.905 100.649C112.906 99.6263 112.078 98.796 111.055 98.7946C110.032 98.7931 109.201 99.6211 109.2 100.644C109.198 101.667 110.027 102.497 111.05 102.498C112.073 102.5 112.903 101.672 112.905 100.649Z" fill="white"/>
<path d="M112.95 78.4219C112.947 77.3991 112.115 76.5723 111.092 76.575C110.069 76.5778 109.242 77.4091 109.245 78.4319C109.248 79.4546 110.079 80.2815 111.102 80.2787C112.125 80.2759 112.952 79.4446 112.95 78.4219Z" fill="white"/>
<path d="M112.967 56.2051C112.968 55.1824 112.14 54.3522 111.117 54.3507C110.094 54.3493 109.264 55.1772 109.262 56.1999C109.261 57.2227 110.089 58.0529 111.112 58.0544C112.135 58.0558 112.966 57.2279 112.967 56.2051Z" fill="white"/>
<path d="M112.998 33.9825C113 32.9598 112.172 32.1295 111.149 32.1281C110.126 32.1267 109.295 32.9546 109.294 33.9773C109.292 35 110.12 35.8303 111.143 35.8317C112.166 35.8331 112.997 35.0052 112.998 33.9825Z" fill="white"/>
<path d="M113.03 11.7608C113.031 10.7381 112.203 9.90784 111.18 9.90641C110.157 9.90498 109.326 10.7329 109.325 11.7556C109.323 12.7783 110.152 13.6086 111.175 13.61C112.198 13.6115 113.028 12.7835 113.03 11.7608Z" fill="white"/>
</g>
<mask id="mask6_3763_6154" style="mask-type:luminance" maskUnits="userSpaceOnUse" x="-37" y="0" width="519" height="402">
<path d="M-36.4395 0.532913L-37 400.344L480.547 401.069L481.107 1.25847L-36.4395 0.532913Z" fill="white"/>
</mask>
<g mask="url(#mask6_3763_6154)">
<path d="M134.2 377.147C133.478 376.423 132.305 376.421 131.58 377.143C130.856 377.865 130.854 379.038 131.577 379.762C132.299 380.486 133.472 380.488 134.196 379.766C134.921 379.044 134.922 377.871 134.2 377.147Z" fill="white"/>
<path d="M134.231 354.925C133.509 354.2 132.336 354.199 131.612 354.921C130.887 355.643 130.886 356.816 131.608 357.54C132.33 358.264 133.503 358.266 134.228 357.543C134.952 356.821 134.954 355.649 134.231 354.925Z" fill="white"/>
<path d="M134.265 332.703C133.542 331.979 132.369 331.977 131.645 332.699C130.921 333.421 130.919 334.594 131.641 335.318C132.364 336.042 133.536 336.044 134.261 335.322C134.985 334.6 134.987 333.427 134.265 332.703Z" fill="white"/>
<path d="M134.296 310.481C133.573 309.757 132.401 309.755 131.676 310.478C130.952 311.2 130.95 312.372 131.673 313.096C132.395 313.821 133.568 313.822 134.292 313.1C135.016 312.378 135.018 311.205 134.296 310.481Z" fill="white"/>
<path d="M134.325 288.258C133.603 287.534 132.43 287.532 131.705 288.254C130.981 288.977 130.979 290.149 131.702 290.873C132.424 291.598 133.597 291.599 134.321 290.877C135.046 290.155 135.047 288.982 134.325 288.258Z" fill="white"/>
<path d="M134.791 266.737C134.454 265.772 133.397 265.262 132.432 265.6C131.466 265.937 130.956 266.993 131.294 267.958C131.631 268.924 132.687 269.433 133.653 269.096C134.619 268.759 135.128 267.703 134.791 266.737Z" fill="white"/>
<path d="M134.505 243.958C133.86 243.164 132.693 243.044 131.9 243.689C131.106 244.334 130.985 245.5 131.631 246.293C132.276 247.087 133.442 247.208 134.236 246.563C135.03 245.917 135.151 244.751 134.505 243.958Z" fill="white"/>
<path d="M134.419 221.594C133.696 220.87 132.524 220.868 131.799 221.59C131.075 222.313 131.073 223.485 131.796 224.209C132.518 224.933 133.691 224.935 134.415 224.213C135.14 223.491 135.141 222.318 134.419 221.594Z" fill="white"/>
<path d="M134.202 199.174C133.365 198.587 132.21 198.79 131.622 199.627C131.035 200.464 131.238 201.619 132.075 202.206C132.913 202.794 134.068 202.591 134.655 201.753C135.243 200.916 135.04 199.761 134.202 199.174Z" fill="white"/>
<path d="M134.483 177.15C133.761 176.426 132.588 176.424 131.864 177.146C131.139 177.868 131.138 179.041 131.86 179.765C132.582 180.489 133.755 180.491 134.48 179.769C135.204 179.046 135.206 177.874 134.483 177.15Z" fill="white"/>
<path d="M134.514 154.928C133.792 154.204 132.619 154.202 131.895 154.924C131.171 155.647 131.169 156.819 131.891 157.543C132.614 158.267 133.786 158.269 134.511 157.547C135.235 156.825 135.237 155.652 134.514 154.928Z" fill="white"/>
<path d="M133.236 132.159C134.259 132.16 135.088 132.991 135.086 134.013C135.085 135.036 134.254 135.864 133.231 135.862C132.208 135.861 131.38 135.031 131.382 134.008C131.383 132.985 132.213 132.157 133.236 132.159Z" fill="white"/>
<path d="M134.577 110.484C133.855 109.76 132.682 109.758 131.957 110.481C131.233 111.203 131.231 112.375 131.954 113.099C132.676 113.824 133.849 113.825 134.573 113.103C135.298 112.381 135.299 111.208 134.577 110.484Z" fill="white"/>
<path d="M134.608 88.2626C133.886 87.5384 132.713 87.5367 131.989 88.2589C131.264 88.9811 131.263 90.1535 131.985 90.8777C132.707 91.6019 133.88 91.6035 134.605 90.8814C135.329 90.1592 135.331 88.9867 134.608 88.2626Z" fill="white"/>
<path d="M134.64 66.0409C133.917 65.3167 132.744 65.3151 132.02 66.0372C131.296 66.7594 131.294 67.9319 132.016 68.656C132.739 69.3802 133.911 69.3819 134.636 68.6597C135.36 67.9376 135.362 66.7651 134.64 66.0409Z" fill="white"/>
<path d="M134.671 43.8187C133.948 43.0945 132.776 43.0929 132.051 43.815C131.327 44.5372 131.325 45.7097 132.048 46.4339C132.77 47.1581 133.943 47.1597 134.667 46.4375C135.391 45.7154 135.393 44.5429 134.671 43.8187Z" fill="white"/>
<path d="M134.702 21.5956C133.98 20.8714 132.807 20.8697 132.082 21.5919C131.358 22.314 131.356 23.4865 132.079 24.2107C132.801 24.9349 133.974 24.9366 134.698 24.2144C135.423 23.4922 135.424 22.3198 134.702 21.5956Z" fill="white"/>
</g>
<mask id="mask7_3763_6154" style="mask-type:luminance" maskUnits="userSpaceOnUse" x="-37" y="0" width="519" height="402">
<path d="M-36.4395 0.532913L-37 400.344L480.547 401.069L481.107 1.25847L-36.4395 0.532913Z" fill="white"/>
</mask>
<g mask="url(#mask7_3763_6154)">
<path d="M179.199 378.516C179.201 377.493 178.373 376.663 177.35 376.662C176.327 376.66 175.496 377.488 175.495 378.511C175.493 379.534 176.321 380.364 177.345 380.365C178.368 380.367 179.198 379.539 179.199 378.516Z" fill="white"/>
<path d="M179.233 356.294C179.234 355.272 178.406 354.442 177.383 354.44C176.36 354.439 175.529 355.267 175.528 356.289C175.527 357.312 176.355 358.142 177.378 358.144C178.401 358.145 179.231 357.317 179.233 356.294Z" fill="white"/>
<path d="M179.262 334.073C179.263 333.05 178.435 332.22 177.412 332.218C176.389 332.217 175.559 333.045 175.557 334.068C175.556 335.09 176.384 335.921 177.407 335.922C178.43 335.923 179.261 335.096 179.262 334.073Z" fill="white"/>
<path d="M179.293 311.851C179.295 310.828 178.466 309.998 177.443 309.997C176.42 309.995 175.59 310.823 175.589 311.846C175.587 312.869 176.415 313.699 177.438 313.7C178.461 313.702 179.292 312.874 179.293 311.851Z" fill="white"/>
<path d="M179.324 289.628C179.326 288.605 178.498 287.775 177.475 287.774C176.452 287.772 175.621 288.6 175.62 289.623C175.618 290.646 176.446 291.476 177.47 291.477C178.493 291.479 179.323 290.651 179.324 289.628Z" fill="white"/>
<path d="M179.356 267.406C179.357 266.384 178.529 265.553 177.506 265.552C176.483 265.55 175.652 266.378 175.651 267.401C175.65 268.424 176.478 269.254 177.501 269.256C178.524 269.257 179.354 268.429 179.356 267.406Z" fill="white"/>
<path d="M179.387 245.185C179.388 244.162 178.56 243.332 177.537 243.33C176.514 243.329 175.684 244.157 175.682 245.179C175.681 246.202 176.509 247.032 177.532 247.034C178.555 247.035 179.386 246.207 179.387 245.185Z" fill="white"/>
<path d="M179.418 222.961C179.42 221.939 178.591 221.109 177.568 221.107C176.545 221.106 175.715 221.934 175.714 222.956C175.712 223.979 176.54 224.809 177.563 224.811C178.586 224.812 179.417 223.984 179.418 222.961Z" fill="white"/>
<path d="M179.449 200.74C179.451 199.717 178.623 198.887 177.6 198.885C176.577 198.884 175.746 199.712 175.745 200.735C175.743 201.757 176.571 202.588 177.595 202.589C178.618 202.59 179.448 201.763 179.449 200.74Z" fill="white"/>
<path d="M179.481 178.518C179.482 177.495 178.654 176.665 177.631 176.664C176.608 176.662 175.777 177.49 175.776 178.513C175.775 179.536 176.603 180.366 177.626 180.367C178.649 180.369 179.479 179.541 179.481 178.518Z" fill="white"/>
<path d="M179.512 156.296C179.513 155.274 178.685 154.443 177.662 154.442C176.639 154.441 175.809 155.269 175.807 156.291C175.806 157.314 176.634 158.144 177.657 158.146C178.68 158.147 179.511 157.319 179.512 156.296Z" fill="white"/>
<path d="M177.693 132.22C178.716 132.222 179.545 133.052 179.543 134.075C179.542 135.098 178.711 135.925 177.688 135.924C176.665 135.923 175.837 135.092 175.839 134.07C175.84 133.047 176.671 132.219 177.693 132.22Z" fill="white"/>
<path d="M179.574 111.853C179.576 110.83 178.748 110 177.725 109.999C176.702 109.997 175.871 110.825 175.87 111.848C175.868 112.871 176.696 113.701 177.72 113.702C178.743 113.704 179.573 112.876 179.574 111.853Z" fill="white"/>
<path d="M179.604 89.6299C179.605 88.6072 178.777 87.777 177.754 87.7756C176.731 87.7741 175.901 88.602 175.899 89.6247C175.898 90.6475 176.726 91.4777 177.749 91.4792C178.772 91.4806 179.602 90.6527 179.604 89.6299Z" fill="white"/>
<path d="M179.637 67.4083C179.638 66.3856 178.81 65.5553 177.787 65.5539C176.764 65.5524 175.934 66.3804 175.932 67.4031C175.931 68.4258 176.759 69.256 177.782 69.2575C178.805 69.2589 179.636 68.431 179.637 67.4083Z" fill="white"/>
<path d="M179.668 45.1866C179.67 44.1639 178.841 43.3336 177.818 43.3322C176.795 43.3308 175.965 44.1587 175.964 45.1814C175.962 46.2041 176.79 47.0344 177.813 47.0358C178.836 47.0372 179.667 46.2093 179.668 45.1866Z" fill="white"/>
<path d="M179.697 22.9649C179.699 21.9422 178.871 21.1119 177.848 21.1105C176.825 21.109 175.994 21.937 175.993 22.9597C175.991 23.9824 176.82 24.8127 177.843 24.8141C178.866 24.8156 179.696 23.9876 179.697 22.9649Z" fill="white"/>
</g>
<mask id="mask8_3763_6154" style="mask-type:luminance" maskUnits="userSpaceOnUse" x="-37" y="0" width="519" height="402">
<path d="M-36.4395 0.532913L-37 400.344L480.547 401.069L481.107 1.25847L-36.4395 0.532913Z" fill="white"/>
</mask>
<g mask="url(#mask8_3763_6154)">
<path d="M156.82 388.885C156.43 387.939 155.347 387.489 154.401 387.879C153.455 388.269 153.005 389.352 153.395 390.297C153.785 391.243 154.868 391.693 155.814 391.303C156.76 390.913 157.21 389.83 156.82 388.885Z" fill="white"/>
<path d="M156.851 366.662C156.461 365.716 155.378 365.266 154.432 365.656C153.486 366.046 153.036 367.129 153.426 368.074C153.817 369.02 154.899 369.47 155.845 369.08C156.791 368.69 157.241 367.607 156.851 366.662Z" fill="white"/>
<path d="M156.882 344.439C156.492 343.494 155.409 343.043 154.463 343.433C153.518 343.823 153.067 344.906 153.458 345.852C153.848 346.797 154.931 347.247 155.876 346.857C156.822 346.467 157.272 345.384 156.882 344.439Z" fill="white"/>
<path d="M156.509 321.623C155.786 320.899 154.613 320.897 153.889 321.619C153.165 322.342 153.163 323.514 153.885 324.238C154.608 324.962 155.781 324.964 156.505 324.242C157.229 323.52 157.231 322.347 156.509 321.623Z" fill="white"/>
<path d="M156.943 299.995C156.553 299.05 155.47 298.6 154.524 298.99C153.578 299.38 153.128 300.463 153.518 301.408C153.908 302.353 154.991 302.804 155.937 302.414C156.883 302.024 157.333 300.941 156.943 299.995Z" fill="white"/>
<path d="M156.974 277.773C156.584 276.827 155.501 276.377 154.555 276.767C153.61 277.157 153.159 278.24 153.549 279.185C153.94 280.131 155.023 280.581 155.968 280.191C156.914 279.801 157.364 278.718 156.974 277.773Z" fill="white"/>
<path d="M157.005 255.55C156.615 254.604 155.532 254.154 154.587 254.544C153.641 254.934 153.19 256.017 153.581 256.962C153.971 257.908 155.054 258.358 155.999 257.968C156.945 257.578 157.396 256.495 157.005 255.55Z" fill="white"/>
<path d="M157.046 233.332C156.654 232.388 155.57 231.94 154.625 232.332C153.68 232.724 153.232 233.807 153.624 234.752C154.016 235.697 155.1 236.145 156.045 235.753C156.99 235.361 157.438 234.277 157.046 233.332Z" fill="white"/>
<path d="M157.065 211.129C156.688 210.178 155.612 209.713 154.66 210.089C153.709 210.466 153.244 211.542 153.621 212.493C153.997 213.444 155.074 213.909 156.025 213.533C156.976 213.156 157.442 212.08 157.065 211.129Z" fill="white"/>
<path d="M157.038 188.774C156.576 187.862 155.461 187.498 154.549 187.96C153.636 188.423 153.272 189.537 153.735 190.449C154.197 191.361 155.312 191.726 156.224 191.263C157.137 190.801 157.501 189.686 157.038 188.774Z" fill="white"/>
<path d="M157.141 166.664C156.749 165.719 155.665 165.271 154.721 165.663C153.776 166.055 153.328 167.139 153.72 168.084C154.112 169.028 155.196 169.476 156.141 169.084C157.085 168.692 157.534 167.609 157.141 166.664Z" fill="white"/>
<path d="M157.172 144.508C156.812 143.551 155.744 143.067 154.786 143.428C153.829 143.788 153.345 144.856 153.705 145.813C154.065 146.77 155.134 147.254 156.091 146.894C157.048 146.534 157.533 145.466 157.172 144.508Z" fill="white"/>
<path d="M157.206 122.219C156.814 121.274 155.73 120.826 154.785 121.218C153.84 121.611 153.392 122.694 153.784 123.639C154.176 124.583 155.26 125.031 156.205 124.639C157.15 124.247 157.598 123.164 157.206 122.219Z" fill="white"/>
<path d="M157.237 99.9964C156.845 99.0518 155.761 98.6038 154.816 98.9958C153.871 99.3878 153.423 100.471 153.815 101.416C154.208 102.361 155.291 102.809 156.236 102.417C157.181 102.025 157.629 100.941 157.237 99.9964Z" fill="white"/>
<path d="M155.972 76.7036C154.977 76.4681 153.979 77.0839 153.743 78.0791C153.508 79.0743 154.124 80.072 155.119 80.3075C156.115 80.543 157.113 79.9271 157.348 78.9319C157.584 77.9367 156.968 76.9391 155.972 76.7036Z" fill="white"/>
<path d="M157.3 55.5506C156.908 54.606 155.824 54.158 154.879 54.5501C153.934 54.9421 153.486 56.0256 153.878 56.9703C154.27 57.9149 155.354 58.3629 156.299 57.9709C157.244 57.5788 157.692 56.4953 157.3 55.5506Z" fill="white"/>
<path d="M157.312 33.3248C156.922 32.3793 155.839 31.9291 154.893 32.3192C153.947 32.7092 153.497 33.7919 153.887 34.7373C154.277 35.6828 155.36 36.133 156.306 35.7429C157.252 35.3529 157.702 34.2702 157.312 33.3248Z" fill="white"/>
<path d="M157.343 11.1031C156.953 10.1576 155.87 9.70742 154.924 10.0975C153.979 10.4876 153.528 11.5702 153.919 12.5157C154.309 13.4611 155.392 13.9113 156.337 13.5212C157.283 13.1312 157.733 12.0485 157.343 11.1031Z" fill="white"/>
</g>
<mask id="mask9_3763_6154" style="mask-type:luminance" maskUnits="userSpaceOnUse" x="-37" y="0" width="519" height="402">
<path d="M-36.4395 0.532913L-37 400.344L480.547 401.069L481.107 1.25847L-36.4395 0.532913Z" fill="white"/>
</mask>
<g mask="url(#mask9_3763_6154)">
<path d="M201.412 389.659C201.414 388.637 200.586 387.806 199.563 387.805C198.54 387.803 197.709 388.631 197.708 389.654C197.706 390.677 198.534 391.507 199.557 391.508C200.58 391.51 201.411 390.682 201.412 389.659Z" fill="white"/>
<path d="M201.446 367.437C201.447 366.414 200.619 365.584 199.596 365.583C198.573 365.581 197.742 366.409 197.741 367.432C197.739 368.455 198.568 369.285 199.591 369.286C200.614 369.288 201.444 368.46 201.446 367.437Z" fill="white"/>
<path d="M201.475 345.216C201.476 344.193 200.648 343.363 199.625 343.361C198.602 343.36 197.772 344.188 197.77 345.211C197.769 346.233 198.597 347.064 199.62 347.065C200.643 347.067 201.473 346.239 201.475 345.216Z" fill="white"/>
<path d="M201.506 322.994C201.507 321.971 200.679 321.141 199.656 321.14C198.633 321.138 197.803 321.966 197.801 322.989C197.8 324.012 198.628 324.842 199.651 324.843C200.674 324.845 201.505 324.017 201.506 322.994Z" fill="white"/>
<path d="M201.537 300.771C201.539 299.748 200.711 298.918 199.688 298.917C198.665 298.915 197.834 299.743 197.833 300.766C197.831 301.789 198.659 302.619 199.682 302.62C200.705 302.622 201.536 301.794 201.537 300.771Z" fill="white"/>
<path d="M201.569 278.549C201.57 277.527 200.742 276.696 199.719 276.695C198.696 276.694 197.865 277.521 197.864 278.544C197.862 279.567 198.691 280.397 199.714 280.399C200.737 280.4 201.567 279.572 201.569 278.549Z" fill="white"/>
<path d="M201.6 256.328C201.601 255.305 200.773 254.475 199.75 254.473C198.727 254.472 197.897 255.3 197.895 256.323C197.894 257.345 198.722 258.175 199.745 258.177C200.768 258.178 201.598 257.35 201.6 256.328Z" fill="white"/>
<path d="M201.631 234.105C201.632 233.082 200.804 232.252 199.781 232.25C198.758 232.249 197.928 233.077 197.926 234.099C197.925 235.122 198.753 235.952 199.776 235.954C200.799 235.955 201.63 235.127 201.631 234.105Z" fill="white"/>
<path d="M201.662 211.883C201.664 210.86 200.836 210.03 199.813 210.028C198.79 210.027 197.959 210.855 197.958 211.878C197.956 212.9 198.784 213.731 199.807 213.732C200.83 213.734 201.661 212.906 201.662 211.883Z" fill="white"/>
<path d="M201.694 189.661C201.695 188.638 200.867 187.808 199.844 187.807C198.821 187.805 197.99 188.633 197.989 189.656C197.987 190.679 198.816 191.509 199.839 191.51C200.862 191.512 201.692 190.684 201.694 189.661Z" fill="white"/>
<path d="M201.725 167.44C201.726 166.417 200.898 165.587 199.875 165.585C198.852 165.584 198.022 166.412 198.02 167.434C198.019 168.457 198.847 169.287 199.87 169.289C200.893 169.29 201.723 168.462 201.725 167.44Z" fill="white"/>
<path d="M201.756 145.217C201.757 144.194 200.929 143.364 199.906 143.362C198.883 143.361 198.053 144.189 198.051 145.212C198.05 146.234 198.878 147.065 199.901 147.066C200.924 147.068 201.755 146.24 201.756 145.217Z" fill="white"/>
<path d="M201.787 122.995C201.789 121.972 200.961 121.142 199.938 121.14C198.915 121.139 198.084 121.967 198.083 122.989C198.081 124.012 198.909 124.842 199.932 124.844C200.955 124.845 201.786 124.017 201.787 122.995Z" fill="white"/>
<path d="M201.817 100.773C201.818 99.7503 200.99 98.92 199.967 98.9186C198.944 98.9172 198.113 99.7451 198.112 100.768C198.111 101.791 198.939 102.621 199.962 102.622C200.985 102.624 201.815 101.796 201.817 100.773Z" fill="white"/>
<path d="M201.85 78.5513C201.851 77.5286 201.023 76.6983 200 76.6969C198.977 76.6955 198.147 77.5234 198.145 78.5461C198.144 79.5689 198.972 80.3991 199.995 80.4005C201.018 80.402 201.848 79.5741 201.85 78.5513Z" fill="white"/>
<path d="M201.881 56.3296C201.882 55.3069 201.054 54.4767 200.031 54.4753C199.008 54.4738 198.178 55.3017 198.176 56.3245C198.175 57.3472 199.003 58.1774 200.026 58.1789C201.049 58.1803 201.88 57.3524 201.881 56.3296Z" fill="white"/>
<path d="M201.91 34.107C201.912 33.0843 201.084 32.254 200.061 32.2526C199.038 32.2512 198.207 33.0791 198.206 34.1018C198.204 35.1245 199.032 35.9548 200.055 35.9562C201.078 35.9576 201.909 35.1297 201.91 34.107Z" fill="white"/>
<path d="M201.944 11.8848C201.945 10.8621 201.117 10.0319 200.094 10.0304C199.071 10.029 198.24 10.8569 198.239 11.8796C198.237 12.9024 199.066 13.7326 200.089 13.734C201.112 13.7355 201.942 12.9075 201.944 11.8848Z" fill="white"/>
</g>
<mask id="mask10_3763_6154" style="mask-type:luminance" maskUnits="userSpaceOnUse" x="-37" y="0" width="519" height="402">
<path d="M-36.4395 0.532913L-37 400.344L480.547 401.069L481.107 1.25847L-36.4395 0.532913Z" fill="white"/>
</mask>
<g mask="url(#mask10_3763_6154)">
<path d="M223.656 378.579C223.658 377.556 222.83 376.726 221.807 376.724C220.784 376.723 219.953 377.551 219.952 378.573C219.95 379.596 220.779 380.426 221.802 380.428C222.825 380.429 223.655 379.601 223.656 378.579Z" fill="white"/>
<path d="M223.69 356.357C223.691 355.334 222.863 354.504 221.84 354.502C220.817 354.501 219.986 355.329 219.985 356.351C219.984 357.374 220.812 358.204 221.835 358.206C222.858 358.207 223.688 357.379 223.69 356.357Z" fill="white"/>
<path d="M223.719 334.135C223.72 333.113 222.892 332.282 221.869 332.281C220.846 332.279 220.016 333.107 220.014 334.13C220.013 335.153 220.841 335.983 221.864 335.985C222.887 335.986 223.718 335.158 223.719 334.135Z" fill="white"/>
<path d="M223.75 311.913C223.752 310.89 222.924 310.06 221.9 310.059C220.877 310.057 220.047 310.885 220.046 311.908C220.044 312.931 220.872 313.761 221.895 313.762C222.918 313.764 223.749 312.936 223.75 311.913Z" fill="white"/>
<path d="M223.781 289.69C223.783 288.668 222.955 287.838 221.932 287.836C220.909 287.835 220.078 288.663 220.077 289.685C220.075 290.708 220.904 291.538 221.927 291.54C222.95 291.541 223.78 290.713 223.781 289.69Z" fill="white"/>
<path d="M223.813 267.469C223.814 266.446 222.986 265.616 221.963 265.614C220.94 265.613 220.109 266.441 220.108 267.464C220.107 268.486 220.935 269.317 221.958 269.318C222.981 269.319 223.811 268.492 223.813 267.469Z" fill="white"/>
<path d="M223.844 245.247C223.845 244.224 223.017 243.394 221.994 243.392C220.971 243.391 220.141 244.219 220.139 245.241C220.138 246.264 220.966 247.094 221.989 247.096C223.012 247.097 223.843 246.269 223.844 245.247Z" fill="white"/>
<path d="M223.875 223.024C223.877 222.001 223.049 221.171 222.025 221.17C221.002 221.168 220.172 221.996 220.171 223.019C220.169 224.042 220.997 224.872 222.02 224.873C223.043 224.875 223.874 224.047 223.875 223.024Z" fill="white"/>
<path d="M223.906 200.802C223.908 199.78 223.08 198.949 222.057 198.948C221.034 198.946 220.203 199.774 220.202 200.797C220.2 201.82 221.029 202.65 222.052 202.652C223.075 202.653 223.905 201.825 223.906 200.802Z" fill="white"/>
<path d="M223.938 178.581C223.939 177.558 223.111 176.728 222.088 176.726C221.065 176.725 220.234 177.553 220.233 178.575C220.232 179.598 221.06 180.428 222.083 180.43C223.106 180.431 223.936 179.603 223.938 178.581Z" fill="white"/>
<path d="M223.969 156.359C223.97 155.336 223.142 154.506 222.119 154.505C221.096 154.503 220.266 155.331 220.264 156.354C220.263 157.376 221.091 158.207 222.114 158.208C223.137 158.21 223.968 157.382 223.969 156.359Z" fill="white"/>
<path d="M222.149 132.283C223.171 132.284 224 133.115 223.998 134.137C223.997 135.16 223.166 135.988 222.143 135.986C221.12 135.985 220.292 135.155 220.294 134.132C220.295 133.109 221.125 132.281 222.149 132.283Z" fill="white"/>
<path d="M224.031 111.916C224.033 110.893 223.205 110.063 222.182 110.061C221.159 110.06 220.328 110.888 220.327 111.91C220.325 112.933 221.154 113.763 222.177 113.765C223.2 113.766 224.03 112.938 224.031 111.916Z" fill="white"/>
<path d="M224.061 89.6924C224.062 88.6697 223.234 87.8395 222.211 87.8381C221.188 87.8366 220.358 88.6645 220.356 89.6872C220.355 90.71 221.183 91.5402 222.206 91.5417C223.229 91.5431 224.059 90.7152 224.061 89.6924Z" fill="white"/>
<path d="M224.092 67.4708C224.093 66.4481 223.265 65.6178 222.242 65.6164C221.219 65.6149 220.389 66.4429 220.387 67.4656C220.386 68.4883 221.214 69.3185 222.237 69.32C223.26 69.3214 224.091 68.4935 224.092 67.4708Z" fill="white"/>
<path d="M224.125 45.2491C224.127 44.2264 223.299 43.3961 222.275 43.3947C221.252 43.3933 220.422 44.2212 220.421 45.2439C220.419 46.2666 221.247 47.0969 222.27 47.0983C223.293 47.0997 224.124 46.2718 224.125 45.2491Z" fill="white"/>
<path d="M224.155 23.0274C224.156 22.0047 223.328 21.1744 222.305 21.173C221.282 21.1715 220.451 21.9995 220.45 23.0222C220.448 24.0449 221.277 24.8752 222.3 24.8766C223.323 24.8781 224.153 24.0501 224.155 23.0274Z" fill="white"/>
</g>
<mask id="mask11_3763_6154" style="mask-type:luminance" maskUnits="userSpaceOnUse" x="-37" y="0" width="519" height="402">
<path d="M-36.4395 0.532913L-37 400.344L480.547 401.069L481.107 1.25847L-36.4395 0.532913Z" fill="white"/>
</mask>
<g mask="url(#mask11_3763_6154)">
<path d="M268.113 378.641C268.115 377.618 267.287 376.788 266.264 376.786C265.241 376.785 264.41 377.613 264.409 378.635C264.407 379.658 265.236 380.488 266.259 380.49C267.282 380.491 268.112 379.663 268.113 378.641Z" fill="white"/>
<path d="M268.147 356.419C268.148 355.396 267.32 354.566 266.297 354.565C265.274 354.563 264.443 355.391 264.442 356.414C264.441 357.437 265.269 358.267 266.292 358.268C267.315 358.27 268.145 357.442 268.147 356.419Z" fill="white"/>
<path d="M268.176 334.197C268.177 333.175 267.349 332.344 266.326 332.343C265.303 332.341 264.473 333.169 264.471 334.192C264.47 335.215 265.298 336.045 266.321 336.047C267.344 336.048 268.175 335.22 268.176 334.197Z" fill="white"/>
<path d="M268.207 311.976C268.209 310.953 267.381 310.123 266.357 310.121C265.334 310.12 264.504 310.948 264.503 311.97C264.501 312.993 265.329 313.823 266.352 313.825C267.375 313.826 268.206 312.998 268.207 311.976Z" fill="white"/>
<path d="M268.238 289.753C268.24 288.73 267.412 287.9 266.389 287.898C265.366 287.897 264.535 288.725 264.534 289.747C264.532 290.77 265.361 291.6 266.384 291.602C267.407 291.603 268.237 290.775 268.238 289.753Z" fill="white"/>
<path d="M268.27 267.531C268.271 266.508 267.443 265.678 266.42 265.676C265.397 265.675 264.567 266.503 264.565 267.526C264.564 268.548 265.392 269.379 266.415 269.38C267.438 269.381 268.268 268.554 268.27 267.531Z" fill="white"/>
<path d="M268.301 245.309C268.302 244.286 267.474 243.456 266.451 243.455C265.428 243.453 264.598 244.281 264.596 245.304C264.595 246.327 265.423 247.157 266.446 247.158C267.469 247.16 268.3 246.332 268.301 245.309Z" fill="white"/>
<path d="M268.332 223.086C268.334 222.063 267.506 221.233 266.482 221.232C265.459 221.23 264.629 222.058 264.628 223.081C264.626 224.104 265.454 224.934 266.477 224.935C267.5 224.937 268.331 224.109 268.332 223.086Z" fill="white"/>
<path d="M268.363 200.864C268.365 199.842 267.537 199.011 266.514 199.01C265.491 199.008 264.66 199.836 264.659 200.859C264.657 201.882 265.486 202.712 266.509 202.714C267.532 202.715 268.362 201.887 268.363 200.864Z" fill="white"/>
<path d="M268.395 178.643C268.396 177.62 267.568 176.79 266.545 176.788C265.522 176.787 264.692 177.615 264.69 178.637C264.689 179.66 265.517 180.49 266.54 180.492C267.563 180.493 268.393 179.665 268.395 178.643Z" fill="white"/>
<path d="M268.426 156.421C268.427 155.398 267.599 154.568 266.576 154.567C265.553 154.565 264.723 155.393 264.721 156.416C264.72 157.438 265.548 158.269 266.571 158.27C267.594 158.272 268.425 157.444 268.426 156.421Z" fill="white"/>
<path d="M266.607 132.345C267.63 132.346 268.459 133.177 268.457 134.199C268.456 135.222 267.625 136.05 266.602 136.048C265.579 136.047 264.751 135.217 264.753 134.194C264.754 133.171 265.585 132.343 266.607 132.345Z" fill="white"/>
<path d="M268.488 111.978C268.49 110.955 267.662 110.125 266.639 110.123C265.616 110.122 264.785 110.95 264.784 111.972C264.782 112.995 265.611 113.825 266.634 113.827C267.657 113.828 268.487 113 268.488 111.978Z" fill="white"/>
<path d="M268.518 89.7544C268.519 88.7317 267.691 87.9015 266.668 87.9001C265.645 87.8986 264.815 88.7265 264.813 89.7493C264.812 90.772 265.64 91.6022 266.663 91.6037C267.686 91.6051 268.516 90.7772 268.518 89.7544Z" fill="white"/>
<path d="M268.551 67.5328C268.552 66.5101 267.724 65.6798 266.701 65.6784C265.678 65.6769 264.848 66.5049 264.846 67.5276C264.845 68.5503 265.673 69.3806 266.696 69.382C267.719 69.3834 268.55 68.5555 268.551 67.5328Z" fill="white"/>
<path d="M268.582 45.3111C268.584 44.2884 267.756 43.4581 266.732 43.4567C265.709 43.4553 264.879 44.2832 264.878 45.3059C264.876 46.3287 265.704 47.1589 266.727 47.1603C267.75 47.1617 268.581 46.3338 268.582 45.3111Z" fill="white"/>
<path d="M268.612 23.0894C268.613 22.0667 267.785 21.2364 266.762 21.235C265.739 21.2336 264.908 22.0615 264.907 23.0842C264.905 24.1069 265.734 24.9372 266.757 24.9386C267.78 24.9401 268.61 24.1121 268.612 23.0894Z" fill="white"/>
</g>
<mask id="mask12_3763_6154" style="mask-type:luminance" maskUnits="userSpaceOnUse" x="-37" y="0" width="519" height="402">
<path d="M-36.4395 0.532913L-37 400.344L480.547 401.069L481.107 1.25847L-36.4395 0.532913Z" fill="white"/>
</mask>
<g mask="url(#mask12_3763_6154)">
<path d="M245.869 389.722C245.871 388.699 245.043 387.869 244.02 387.867C242.997 387.866 242.166 388.694 242.165 389.717C242.163 390.739 242.991 391.57 244.014 391.571C245.037 391.572 245.868 390.744 245.869 389.722Z" fill="white"/>
<path d="M245.903 367.5C245.904 366.477 245.076 365.647 244.053 365.645C243.03 365.644 242.199 366.472 242.198 367.494C242.196 368.517 243.025 369.347 244.048 369.349C245.071 369.35 245.901 368.522 245.903 367.5Z" fill="white"/>
<path d="M245.932 345.278C245.933 344.256 245.105 343.425 244.082 343.424C243.059 343.423 242.229 344.25 242.227 345.273C242.226 346.296 243.054 347.126 244.077 347.128C245.1 347.129 245.93 346.301 245.932 345.278Z" fill="white"/>
<path d="M245.963 323.056C245.965 322.033 245.136 321.203 244.113 321.202C243.09 321.2 242.26 322.028 242.258 323.051C242.257 324.074 243.085 324.904 244.108 324.905C245.131 324.907 245.962 324.079 245.963 323.056Z" fill="white"/>
<path d="M245.994 300.834C245.996 299.811 245.168 298.981 244.145 298.979C243.122 298.978 242.291 299.806 242.29 300.828C242.288 301.851 243.116 302.681 244.139 302.683C245.162 302.684 245.993 301.856 245.994 300.834Z" fill="white"/>
<path d="M246.026 278.612C246.027 277.589 245.199 276.759 244.176 276.757C243.153 276.756 242.322 277.584 242.321 278.607C242.32 279.629 243.148 280.46 244.171 280.461C245.194 280.463 246.024 279.635 246.026 278.612Z" fill="white"/>
<path d="M246.057 256.39C246.058 255.367 245.23 254.537 244.207 254.536C243.184 254.534 242.354 255.362 242.352 256.385C242.351 257.408 243.179 258.238 244.202 258.239C245.225 258.241 246.055 257.413 246.057 256.39Z" fill="white"/>
<path d="M246.088 234.167C246.09 233.144 245.261 232.314 244.238 232.313C243.215 232.311 242.385 233.139 242.383 234.162C242.382 235.185 243.21 236.015 244.233 236.016C245.256 236.018 246.087 235.19 246.088 234.167Z" fill="white"/>
<path d="M246.119 211.945C246.121 210.923 245.293 210.092 244.27 210.091C243.247 210.09 242.416 210.917 242.415 211.94C242.413 212.963 243.241 213.793 244.264 213.795C245.287 213.796 246.118 212.968 246.119 211.945Z" fill="white"/>
<path d="M246.151 189.724C246.152 188.701 245.324 187.871 244.301 187.869C243.278 187.868 242.447 188.696 242.446 189.718C242.445 190.741 243.273 191.571 244.296 191.573C245.319 191.574 246.149 190.746 246.151 189.724Z" fill="white"/>
<path d="M246.182 167.502C246.183 166.479 245.355 165.649 244.332 165.648C243.309 165.646 242.479 166.474 242.477 167.497C242.476 168.52 243.304 169.35 244.327 169.351C245.35 169.353 246.18 168.525 246.182 167.502Z" fill="white"/>
<path d="M246.213 145.279C246.215 144.257 245.386 143.426 244.363 143.425C243.34 143.424 242.51 144.251 242.508 145.274C242.507 146.297 243.335 147.127 244.358 147.129C245.381 147.13 246.212 146.302 246.213 145.279Z" fill="white"/>
<path d="M246.244 123.057C246.246 122.034 245.418 121.204 244.395 121.203C243.372 121.201 242.541 122.029 242.54 123.052C242.538 124.075 243.366 124.905 244.389 124.906C245.412 124.908 246.243 124.08 246.244 123.057Z" fill="white"/>
<path d="M246.274 100.836C246.275 99.8128 245.447 98.9825 244.424 98.9811C243.401 98.9797 242.57 99.8076 242.569 100.83C242.568 101.853 243.396 102.683 244.419 102.685C245.442 102.686 246.272 101.858 246.274 100.836Z" fill="white"/>
<path d="M246.307 78.6138C246.308 77.5911 245.48 76.7608 244.457 76.7594C243.434 76.758 242.604 77.5859 242.602 78.6086C242.601 79.6314 243.429 80.4616 244.452 80.463C245.475 80.4645 246.305 79.6366 246.307 78.6138Z" fill="white"/>
<path d="M246.338 56.3921C246.34 55.3694 245.511 54.5392 244.488 54.5378C243.465 54.5363 242.635 55.3642 242.633 56.387C242.632 57.4097 243.46 58.2399 244.483 58.2414C245.506 58.2428 246.337 57.4149 246.338 56.3921Z" fill="white"/>
<path d="M246.367 34.1695C246.369 33.1468 245.541 32.3165 244.518 32.3151C243.495 32.3137 242.664 33.1416 242.663 34.1643C242.661 35.187 243.489 36.0173 244.512 36.0187C245.535 36.0201 246.366 35.1922 246.367 34.1695Z" fill="white"/>
<path d="M246.401 11.9473C246.402 10.9246 245.574 10.0944 244.551 10.0929C243.528 10.0915 242.697 10.9194 242.696 11.9421C242.695 12.9649 243.523 13.7951 244.546 13.7965C245.569 13.798 246.399 12.97 246.401 11.9473Z" fill="white"/>
</g>
<mask id="mask13_3763_6154" style="mask-type:luminance" maskUnits="userSpaceOnUse" x="-37" y="0" width="519" height="402">
<path d="M-36.4395 0.532913L-37 400.344L480.547 401.069L481.107 1.25847L-36.4395 0.532913Z" fill="white"/>
</mask>
<g mask="url(#mask13_3763_6154)">
<path d="M288.778 387.95C287.769 387.785 286.816 388.469 286.651 389.478C286.486 390.488 287.17 391.44 288.18 391.605C289.189 391.77 290.142 391.086 290.307 390.077C290.472 389.068 289.788 388.115 288.778 387.95Z" fill="white"/>
<path d="M288.81 365.727C287.8 365.562 286.848 366.246 286.682 367.256C286.517 368.265 287.201 369.217 288.211 369.382C289.221 369.548 290.173 368.863 290.338 367.854C290.504 366.845 289.819 365.893 288.81 365.727Z" fill="white"/>
<path d="M288.841 343.506C287.831 343.34 286.879 344.025 286.714 345.034C286.548 346.043 287.233 346.995 288.242 347.161C289.252 347.326 290.204 346.642 290.37 345.632C290.535 344.623 289.85 343.671 288.841 343.506Z" fill="white"/>
<path d="M289.015 321.327C288.02 321.091 287.021 321.706 286.785 322.701C286.548 323.696 287.164 324.694 288.159 324.93C289.154 325.167 290.153 324.552 290.389 323.557C290.626 322.562 290.01 321.564 289.015 321.327Z" fill="white"/>
<path d="M288.901 299.061C287.892 298.896 286.939 299.58 286.774 300.589C286.609 301.599 287.293 302.551 288.303 302.716C289.312 302.881 290.265 302.197 290.43 301.188C290.595 300.178 289.911 299.226 288.901 299.061Z" fill="white"/>
<path d="M288.933 276.838C287.923 276.673 286.971 277.357 286.805 278.367C286.64 279.376 287.325 280.328 288.334 280.493C289.344 280.659 290.296 279.974 290.461 278.965C290.627 277.956 289.942 277.004 288.933 276.838Z" fill="white"/>
<path d="M288.964 254.617C287.954 254.451 287.002 255.136 286.837 256.145C286.671 257.154 287.356 258.106 288.365 258.272C289.375 258.437 290.327 257.753 290.493 256.743C290.658 255.734 289.974 254.782 288.964 254.617Z" fill="white"/>
<path d="M288.997 232.407C287.987 232.242 287.035 232.925 286.869 233.935C286.703 234.944 287.387 235.896 288.397 236.062C289.406 236.228 290.359 235.544 290.525 234.535C290.69 233.525 290.006 232.573 288.997 232.407Z" fill="white"/>
<path d="M289.041 210.183C288.031 210.021 287.08 210.708 286.918 211.717C286.755 212.727 287.442 213.677 288.452 213.84C289.462 214.002 290.413 213.315 290.575 212.306C290.738 211.296 290.051 210.346 289.041 210.183Z" fill="white"/>
<path d="M289.091 187.958C288.084 187.778 287.122 188.448 286.941 189.455C286.761 190.462 287.431 191.424 288.438 191.604C289.445 191.784 290.408 191.114 290.588 190.107C290.768 189.101 290.098 188.138 289.091 187.958Z" fill="white"/>
<path d="M289.091 165.741C288.081 165.575 287.128 166.259 286.963 167.268C286.797 168.277 287.481 169.23 288.491 169.395C289.5 169.561 290.453 168.877 290.618 167.868C290.784 166.859 290.1 165.906 289.091 165.741Z" fill="white"/>
<path d="M289.099 143.514C288.088 143.355 287.14 144.046 286.981 145.056C286.822 146.066 287.513 147.014 288.524 147.173C289.534 147.331 290.482 146.641 290.641 145.631C290.8 144.62 290.109 143.673 289.099 143.514Z" fill="white"/>
<path d="M289.153 121.296C288.144 121.131 287.191 121.815 287.025 122.824C286.86 123.833 287.544 124.785 288.553 124.951C289.563 125.117 290.515 124.433 290.681 123.424C290.847 122.414 290.163 121.462 289.153 121.296Z" fill="white"/>
<path d="M289.184 99.0747C288.175 98.909 287.222 99.5929 287.056 100.602C286.891 101.611 287.575 102.564 288.584 102.729C289.594 102.895 290.546 102.211 290.712 101.202C290.878 100.193 290.194 99.2404 289.184 99.0747Z" fill="white"/>
<path d="M290.222 77.3705C289.499 76.6463 288.326 76.6446 287.602 77.3668C286.878 78.089 286.876 79.2614 287.598 79.9856C288.321 80.7098 289.493 80.7115 290.218 79.9893C290.942 79.2672 290.944 78.0947 290.222 77.3705Z" fill="white"/>
<path d="M289.249 54.6309C288.239 54.4652 287.287 55.149 287.121 56.1582C286.955 57.1674 287.639 58.1198 288.649 58.2855C289.658 58.4511 290.611 57.7673 290.777 56.7581C290.942 55.7489 290.258 54.7965 289.249 54.6309Z" fill="white"/>
<path d="M289.273 32.3925C288.263 32.2272 287.311 32.9114 287.145 33.9207C286.98 34.9301 287.664 35.8822 288.674 36.0475C289.684 36.2127 290.636 35.5285 290.801 34.5192C290.967 33.5099 290.282 32.5577 289.273 32.3925Z" fill="white"/>
<path d="M289.304 10.1698C288.294 10.0045 287.342 10.6888 287.176 11.6981C287.011 12.7074 287.696 13.6595 288.705 13.8248C289.715 13.9901 290.667 13.3058 290.833 12.2965C290.998 11.2872 290.313 10.3351 289.304 10.1698Z" fill="white"/>
</g>
<mask id="mask14_3763_6154" style="mask-type:luminance" maskUnits="userSpaceOnUse" x="-37" y="0" width="519" height="402">
<path d="M-36.4395 0.532913L-37 400.344L480.547 401.069L481.107 1.25847L-36.4395 0.532913Z" fill="white"/>
</mask>
<g mask="url(#mask14_3763_6154)">
<path d="M312.569 378.703C312.57 377.68 311.742 376.85 310.719 376.849C309.696 376.847 308.865 377.675 308.864 378.698C308.862 379.721 309.691 380.551 310.714 380.552C311.737 380.554 312.567 379.726 312.569 378.703Z" fill="white"/>
<path d="M312.602 356.482C312.603 355.459 311.775 354.629 310.752 354.627C309.729 354.626 308.899 355.454 308.897 356.476C308.896 357.499 309.724 358.329 310.747 358.331C311.77 358.332 312.6 357.504 312.602 356.482Z" fill="white"/>
<path d="M312.631 334.26C312.633 333.237 311.804 332.407 310.781 332.405C309.758 332.404 308.928 333.232 308.926 334.255C308.925 335.277 309.753 336.108 310.776 336.109C311.799 336.11 312.63 335.283 312.631 334.26Z" fill="white"/>
<path d="M312.662 312.038C312.664 311.015 311.836 310.185 310.813 310.184C309.79 310.182 308.959 311.01 308.958 312.033C308.956 313.056 309.784 313.886 310.807 313.887C311.83 313.889 312.661 313.061 312.662 312.038Z" fill="white"/>
<path d="M312.694 289.815C312.695 288.792 311.867 287.962 310.844 287.961C309.821 287.959 308.99 288.787 308.989 289.81C308.987 290.833 309.816 291.663 310.839 291.664C311.862 291.666 312.692 290.838 312.694 289.815Z" fill="white"/>
<path d="M312.725 267.593C312.726 266.571 311.898 265.74 310.875 265.739C309.852 265.737 309.022 266.565 309.02 267.588C309.019 268.611 309.847 269.441 310.87 269.443C311.893 269.444 312.723 268.616 312.725 267.593Z" fill="white"/>
<path d="M312.756 245.372C312.758 244.349 311.929 243.519 310.906 243.517C309.883 243.516 309.053 244.344 309.051 245.366C309.05 246.389 309.878 247.219 310.901 247.221C311.924 247.222 312.755 246.394 312.756 245.372Z" fill="white"/>
<path d="M312.787 223.149C312.789 222.126 311.961 221.296 310.938 221.294C309.915 221.293 309.084 222.121 309.083 223.143C309.081 224.166 309.909 224.996 310.932 224.998C311.955 224.999 312.786 224.171 312.787 223.149Z" fill="white"/>
<path d="M312.819 200.927C312.82 199.904 311.992 199.074 310.969 199.072C309.946 199.071 309.115 199.899 309.114 200.922C309.112 201.944 309.941 202.775 310.964 202.776C311.987 202.777 312.817 201.95 312.819 200.927Z" fill="white"/>
<path d="M312.85 178.705C312.851 177.682 312.023 176.852 311 176.851C309.977 176.849 309.147 177.677 309.145 178.7C309.144 179.723 309.972 180.553 310.995 180.554C312.018 180.556 312.848 179.728 312.85 178.705Z" fill="white"/>
<path d="M312.881 156.483C312.883 155.461 312.054 154.63 311.031 154.629C310.008 154.628 309.178 155.456 309.176 156.478C309.175 157.501 310.003 158.331 311.026 158.333C312.049 158.334 312.88 157.506 312.881 156.483Z" fill="white"/>
<path d="M311.063 132.407C312.086 132.409 312.914 133.239 312.912 134.262C312.911 135.285 312.08 136.112 311.057 136.111C310.034 136.11 309.206 135.279 309.208 134.257C309.209 133.234 310.04 132.406 311.063 132.407Z" fill="white"/>
<path d="M312.944 112.04C312.945 111.017 312.117 110.187 311.094 110.186C310.071 110.184 309.24 111.012 309.239 112.035C309.237 113.058 310.066 113.888 311.089 113.889C312.112 113.891 312.942 113.063 312.944 112.04Z" fill="white"/>
<path d="M312.973 89.8169C312.974 88.7942 312.146 87.964 311.123 87.9626C310.1 87.9611 309.27 88.789 309.268 89.8118C309.267 90.8345 310.095 91.6647 311.118 91.6662C312.141 91.6676 312.971 90.8397 312.973 89.8169Z" fill="white"/>
<path d="M313.006 67.5953C313.008 66.5726 312.179 65.7423 311.156 65.7409C310.133 65.7394 309.303 66.5674 309.301 67.5901C309.3 68.6128 310.128 69.4431 311.151 69.4445C312.174 69.4459 313.005 68.618 313.006 67.5953Z" fill="white"/>
<path d="M313.037 45.3736C313.039 44.3509 312.211 43.5206 311.188 43.5192C310.165 43.5178 309.334 44.3457 309.333 45.3684C309.331 46.3912 310.159 47.2214 311.182 47.2228C312.205 47.2242 313.036 46.3963 313.037 45.3736Z" fill="white"/>
<path d="M313.067 23.1519C313.068 22.1292 312.24 21.2989 311.217 21.2975C310.194 21.2961 309.363 22.124 309.362 23.1467C309.361 24.1694 310.189 24.9997 311.212 25.0011C312.235 25.0026 313.065 24.1746 313.067 23.1519Z" fill="white"/>
</g>
<mask id="mask15_3763_6154" style="mask-type:luminance" maskUnits="userSpaceOnUse" x="-37" y="0" width="519" height="402">
<path d="M-36.4395 0.532913L-37 400.344L480.547 401.069L481.107 1.25847L-36.4395 0.532913Z" fill="white"/>
</mask>
<g mask="url(#mask15_3763_6154)">
<path d="M357.026 378.766C357.027 377.743 356.199 376.913 355.176 376.911C354.153 376.91 353.322 377.738 353.321 378.76C353.32 379.783 354.148 380.613 355.171 380.615C356.194 380.616 357.024 379.788 357.026 378.766Z" fill="white"/>
<path d="M357.059 356.544C357.06 355.521 356.232 354.691 355.209 354.69C354.186 354.688 353.356 355.516 353.354 356.539C353.353 357.562 354.181 358.392 355.204 358.393C356.227 358.395 357.057 357.567 357.059 356.544Z" fill="white"/>
<path d="M357.088 334.322C357.09 333.3 356.261 332.469 355.238 332.468C354.215 332.466 353.385 333.294 353.383 334.317C353.382 335.34 354.21 336.17 355.233 336.172C356.256 336.173 357.087 335.345 357.088 334.322Z" fill="white"/>
<path d="M357.119 312.101C357.121 311.078 356.293 310.248 355.27 310.246C354.247 310.245 353.416 311.073 353.415 312.095C353.413 313.118 354.241 313.948 355.264 313.95C356.287 313.951 357.118 313.123 357.119 312.101Z" fill="white"/>
<path d="M357.151 289.878C357.152 288.855 356.324 288.025 355.301 288.023C354.278 288.022 353.447 288.85 353.446 289.872C353.445 290.895 354.273 291.725 355.296 291.727C356.319 291.728 357.149 290.9 357.151 289.878Z" fill="white"/>
<path d="M357.182 267.656C357.183 266.633 356.355 265.803 355.332 265.801C354.309 265.8 353.479 266.628 353.477 267.651C353.476 268.673 354.304 269.504 355.327 269.505C356.35 269.506 357.18 268.679 357.182 267.656Z" fill="white"/>
<path d="M357.213 245.434C357.215 244.411 356.386 243.581 355.363 243.58C354.34 243.578 353.51 244.406 353.508 245.429C353.507 246.452 354.335 247.282 355.358 247.283C356.381 247.285 357.212 246.457 357.213 245.434Z" fill="white"/>
<path d="M357.244 223.211C357.246 222.188 356.418 221.358 355.395 221.357C354.372 221.355 353.541 222.183 353.54 223.206C353.538 224.229 354.366 225.059 355.389 225.06C356.412 225.062 357.243 224.234 357.244 223.211Z" fill="white"/>
<path d="M357.276 200.989C357.277 199.967 356.449 199.136 355.426 199.135C354.403 199.133 353.572 199.961 353.571 200.984C353.57 202.007 354.398 202.837 355.421 202.839C356.444 202.84 357.274 202.012 357.276 200.989Z" fill="white"/>
<path d="M357.307 178.768C357.308 177.745 356.48 176.915 355.457 176.913C354.434 176.912 353.604 177.74 353.602 178.762C353.601 179.785 354.429 180.615 355.452 180.617C356.475 180.618 357.305 179.79 357.307 178.768Z" fill="white"/>
<path d="M357.338 156.546C357.34 155.523 356.511 154.693 355.488 154.692C354.465 154.69 353.635 155.518 353.633 156.541C353.632 157.563 354.46 158.394 355.483 158.395C356.506 158.397 357.337 157.569 357.338 156.546Z" fill="white"/>
<path d="M355.52 132.47C356.543 132.471 357.371 133.302 357.369 134.324C357.368 135.347 356.537 136.175 355.514 136.173C354.492 136.172 353.663 135.342 353.665 134.319C353.666 133.296 354.496 132.468 355.52 132.47Z" fill="white"/>
<path d="M357.401 112.103C357.402 111.08 356.574 110.25 355.551 110.248C354.528 110.247 353.697 111.075 353.696 112.097C353.695 113.12 354.523 113.95 355.546 113.952C356.569 113.953 357.399 113.125 357.401 112.103Z" fill="white"/>
<path d="M357.43 89.8794C357.431 88.8567 356.603 88.0265 355.58 88.0251C354.557 88.0236 353.727 88.8515 353.725 89.8743C353.724 90.897 354.552 91.7272 355.575 91.7287C356.598 91.7301 357.428 90.9022 357.43 89.8794Z" fill="white"/>
<path d="M357.463 67.6578C357.465 66.6351 356.636 65.8048 355.613 65.8034C354.59 65.8019 353.76 66.6299 353.758 67.6526C353.757 68.6753 354.585 69.5056 355.608 69.507C356.631 69.5084 357.462 68.6805 357.463 67.6578Z" fill="white"/>
<path d="M357.494 45.4361C357.496 44.4134 356.668 43.5831 355.645 43.5817C354.622 43.5803 353.791 44.4082 353.79 45.4309C353.788 46.4537 354.616 47.2839 355.639 47.2853C356.662 47.2867 357.493 46.4588 357.494 45.4361Z" fill="white"/>
<path d="M357.524 23.2144C357.525 22.1917 356.697 21.3614 355.674 21.36C354.651 21.3586 353.82 22.1865 353.819 23.2092C353.818 24.2319 354.646 25.0622 355.669 25.0636C356.692 25.0651 357.522 24.2371 357.524 23.2144Z" fill="white"/>
</g>
<mask id="mask16_3763_6154" style="mask-type:luminance" maskUnits="userSpaceOnUse" x="-37" y="0" width="519" height="402">
<path d="M-36.4395 0.532913L-37 400.344L480.547 401.069L481.107 1.25847L-36.4395 0.532913Z" fill="white"/>
</mask>
<g mask="url(#mask16_3763_6154)">
<path d="M334.781 389.846C334.783 388.824 333.955 387.993 332.932 387.992C331.909 387.99 331.078 388.818 331.077 389.841C331.075 390.864 331.904 391.694 332.927 391.695C333.95 391.697 334.78 390.869 334.781 389.846Z" fill="white"/>
<path d="M334.815 367.625C334.816 366.602 333.988 365.772 332.965 365.77C331.942 365.769 331.111 366.597 331.11 367.619C331.109 368.642 331.937 369.472 332.96 369.474C333.983 369.475 334.813 368.647 334.815 367.625Z" fill="white"/>
<path d="M334.844 345.403C334.845 344.38 334.017 343.55 332.994 343.548C331.971 343.547 331.141 344.375 331.139 345.398C331.138 346.42 331.966 347.251 332.989 347.252C334.012 347.254 334.843 346.426 334.844 345.403Z" fill="white"/>
<path d="M334.875 323.181C334.877 322.158 334.049 321.328 333.025 321.327C332.002 321.325 331.172 322.153 331.171 323.176C331.169 324.199 331.997 325.029 333.02 325.03C334.043 325.032 334.874 324.204 334.875 323.181Z" fill="white"/>
<path d="M334.906 300.958C334.908 299.935 334.08 299.105 333.057 299.104C332.034 299.102 331.203 299.93 331.202 300.953C331.2 301.976 332.029 302.806 333.052 302.807C334.075 302.809 334.905 301.981 334.906 300.958Z" fill="white"/>
<path d="M334.938 278.736C334.939 277.714 334.111 276.883 333.088 276.882C332.065 276.881 331.234 277.708 331.233 278.731C331.232 279.754 332.06 280.584 333.083 280.586C334.106 280.587 334.936 279.759 334.938 278.736Z" fill="white"/>
<path d="M334.969 256.515C334.97 255.492 334.142 254.662 333.119 254.66C332.096 254.659 331.266 255.487 331.264 256.51C331.263 257.532 332.091 258.362 333.114 258.364C334.137 258.365 334.968 257.537 334.969 256.515Z" fill="white"/>
<path d="M335 234.292C335.002 233.269 334.174 232.439 333.15 232.437C332.127 232.436 331.297 233.264 331.296 234.286C331.294 235.309 332.122 236.139 333.145 236.141C334.168 236.142 334.999 235.314 335 234.292Z" fill="white"/>
<path d="M335.031 212.07C335.033 211.047 334.205 210.217 333.182 210.215C332.159 210.214 331.328 211.042 331.327 212.065C331.325 213.087 332.154 213.918 333.177 213.919C334.2 213.921 335.03 213.093 335.031 212.07Z" fill="white"/>
<path d="M335.063 189.848C335.064 188.825 334.236 187.995 333.213 187.994C332.19 187.992 331.359 188.82 331.358 189.843C331.357 190.866 332.185 191.696 333.208 191.697C334.231 191.699 335.061 190.871 335.063 189.848Z" fill="white"/>
<path d="M335.094 167.627C335.095 166.604 334.267 165.774 333.244 165.772C332.221 165.771 331.391 166.599 331.389 167.621C331.388 168.644 332.216 169.474 333.239 169.476C334.262 169.477 335.093 168.649 335.094 167.627Z" fill="white"/>
<path d="M335.125 145.404C335.127 144.381 334.299 143.551 333.275 143.549C332.252 143.548 331.422 144.376 331.421 145.399C331.419 146.421 332.247 147.252 333.27 147.253C334.293 147.255 335.124 146.427 335.125 145.404Z" fill="white"/>
<path d="M335.156 123.182C335.158 122.159 334.33 121.329 333.307 121.327C332.284 121.326 331.453 122.154 331.452 123.177C331.45 124.199 332.279 125.029 333.302 125.031C334.325 125.032 335.155 124.204 335.156 123.182Z" fill="white"/>
<path d="M335.186 100.96C335.187 99.9373 334.359 99.107 333.336 99.1056C332.313 99.1042 331.483 99.9321 331.481 100.955C331.48 101.978 332.308 102.808 333.331 102.809C334.354 102.811 335.184 101.983 335.186 100.96Z" fill="white"/>
<path d="M335.219 78.7383C335.22 77.7156 334.392 76.8854 333.369 76.8839C332.346 76.8825 331.516 77.7104 331.514 78.7331C331.513 79.7559 332.341 80.5861 333.364 80.5876C334.387 80.589 335.218 79.7611 335.219 78.7383Z" fill="white"/>
<path d="M335.25 56.5167C335.252 55.4939 334.424 54.6637 333.4 54.6623C332.377 54.6608 331.547 55.4887 331.546 56.5115C331.544 57.5342 332.372 58.3644 333.395 58.3659C334.418 58.3673 335.249 57.5394 335.25 56.5167Z" fill="white"/>
<path d="M335.28 34.294C335.281 33.2713 334.453 32.441 333.43 32.4396C332.407 32.4382 331.576 33.2661 331.575 34.2888C331.573 35.3115 332.402 36.1418 333.425 36.1432C334.448 36.1447 335.278 35.3167 335.28 34.294Z" fill="white"/>
<path d="M335.313 12.0723C335.314 11.0496 334.486 10.2194 333.463 10.2179C332.44 10.2165 331.609 11.0444 331.608 12.0671C331.607 13.0899 332.435 13.9201 333.458 13.9215C334.481 13.923 335.311 13.095 335.313 12.0723Z" fill="white"/>
</g>
<mask id="mask17_3763_6154" style="mask-type:luminance" maskUnits="userSpaceOnUse" x="-37" y="0" width="519" height="402">
<path d="M-36.4395 0.532913L-37 400.344L480.547 401.069L481.107 1.25847L-36.4395 0.532913Z" fill="white"/>
</mask>
<g mask="url(#mask17_3763_6154)">
<path d="M379.237 389.909C379.238 388.886 378.41 388.056 377.387 388.054C376.364 388.053 375.533 388.881 375.532 389.904C375.53 390.926 376.359 391.757 377.382 391.758C378.405 391.759 379.235 390.931 379.237 389.909Z" fill="white"/>
<path d="M379.27 367.687C379.271 366.664 378.443 365.834 377.42 365.833C376.397 365.831 375.567 366.659 375.565 367.682C375.564 368.705 376.392 369.535 377.415 369.536C378.438 369.538 379.268 368.71 379.27 367.687Z" fill="white"/>
<path d="M379.299 345.465C379.3 344.443 378.472 343.612 377.449 343.611C376.426 343.61 375.596 344.437 375.594 345.46C375.593 346.483 376.421 347.313 377.444 347.315C378.467 347.316 379.298 346.488 379.299 345.465Z" fill="white"/>
<path d="M379.33 323.244C379.332 322.221 378.504 321.391 377.481 321.389C376.458 321.388 375.627 322.216 375.626 323.239C375.624 324.261 376.452 325.091 377.475 325.093C378.498 325.094 379.329 324.266 379.33 323.244Z" fill="white"/>
<path d="M379.362 301.021C379.363 299.998 378.535 299.168 377.512 299.166C376.489 299.165 375.658 299.993 375.657 301.015C375.655 302.038 376.484 302.868 377.507 302.87C378.53 302.871 379.36 302.043 379.362 301.021Z" fill="white"/>
<path d="M379.393 278.799C379.394 277.776 378.566 276.946 377.543 276.944C376.52 276.943 375.69 277.771 375.688 278.794C375.687 279.816 376.515 280.647 377.538 280.648C378.561 280.65 379.391 279.822 379.393 278.799Z" fill="white"/>
<path d="M379.424 256.577C379.425 255.554 378.597 254.724 377.574 254.723C376.551 254.721 375.721 255.549 375.719 256.572C375.718 257.595 376.546 258.425 377.569 258.426C378.592 258.428 379.423 257.6 379.424 256.577Z" fill="white"/>
<path d="M379.455 234.354C379.457 233.331 378.629 232.501 377.606 232.5C376.583 232.498 375.752 233.326 375.751 234.349C375.749 235.372 376.577 236.202 377.6 236.203C378.623 236.205 379.454 235.377 379.455 234.354Z" fill="white"/>
<path d="M379.487 212.132C379.488 211.11 378.66 210.279 377.637 210.278C376.614 210.277 375.783 211.104 375.782 212.127C375.78 213.15 376.609 213.98 377.632 213.982C378.655 213.983 379.485 213.155 379.487 212.132Z" fill="white"/>
<path d="M379.518 189.911C379.519 188.888 378.691 188.058 377.668 188.056C376.645 188.055 375.815 188.883 375.813 189.906C375.812 190.928 376.64 191.758 377.663 191.76C378.686 191.761 379.516 190.933 379.518 189.911Z" fill="white"/>
<path d="M379.549 167.689C379.55 166.666 378.722 165.836 377.699 165.835C376.676 165.833 375.846 166.661 375.844 167.684C375.843 168.707 376.671 169.537 377.694 169.538C378.717 169.54 379.548 168.712 379.549 167.689Z" fill="white"/>
<path d="M379.58 145.466C379.582 144.444 378.754 143.613 377.731 143.612C376.708 143.611 375.877 144.438 375.876 145.461C375.874 146.484 376.702 147.314 377.725 147.316C378.748 147.317 379.579 146.489 379.58 145.466Z" fill="white"/>
<path d="M379.612 123.244C379.613 122.221 378.785 121.391 377.762 121.39C376.739 121.388 375.908 122.216 375.907 123.239C375.905 124.262 376.734 125.092 377.757 125.093C378.78 125.095 379.61 124.267 379.612 123.244Z" fill="white"/>
<path d="M379.641 101.023C379.642 99.9998 378.814 99.1695 377.791 99.1681C376.768 99.1667 375.938 99.9946 375.936 101.017C375.935 102.04 376.763 102.87 377.786 102.872C378.809 102.873 379.639 102.045 379.641 101.023Z" fill="white"/>
<path d="M379.674 78.8008C379.675 77.7781 378.847 76.9479 377.824 76.9464C376.801 76.945 375.971 77.7729 375.969 78.7956C375.968 79.8184 376.796 80.6486 377.819 80.6501C378.842 80.6515 379.673 79.8236 379.674 78.8008Z" fill="white"/>
<path d="M379.705 56.5792C379.707 55.5564 378.879 54.7262 377.856 54.7248C376.833 54.7233 376.002 55.5512 376.001 56.574C375.999 57.5967 376.827 58.4269 377.85 58.4284C378.873 58.4298 379.704 57.6019 379.705 56.5792Z" fill="white"/>
<path d="M379.735 34.3565C379.736 33.3338 378.908 32.5035 377.885 32.5021C376.862 32.5007 376.031 33.3286 376.03 34.3513C376.029 35.374 376.857 36.2043 377.88 36.2057C378.903 36.2072 379.733 35.3792 379.735 34.3565Z" fill="white"/>
<path d="M379.768 12.1343C379.769 11.1116 378.941 10.2814 377.918 10.2799C376.895 10.2785 376.065 11.1064 376.063 12.1291C376.062 13.1519 376.89 13.9821 377.913 13.9836C378.936 13.985 379.766 13.1571 379.768 12.1343Z" fill="white"/>
</g>
<mask id="mask18_3763_6154" style="mask-type:luminance" maskUnits="userSpaceOnUse" x="-37" y="0" width="519" height="402">
<path d="M-36.4395 0.532913L-37 400.344L480.547 401.069L481.107 1.25847L-36.4395 0.532913Z" fill="white"/>
</mask>
<g mask="url(#mask18_3763_6154)">
<path d="M401.481 378.828C401.482 377.805 400.654 376.975 399.631 376.973C398.608 376.972 397.777 377.8 397.776 378.823C397.775 379.845 398.603 380.675 399.626 380.677C400.649 380.678 401.479 379.85 401.481 378.828Z" fill="white"/>
<path d="M401.514 356.606C401.515 355.583 400.687 354.753 399.664 354.752C398.641 354.75 397.811 355.578 397.809 356.601C397.808 357.624 398.636 358.454 399.659 358.455C400.682 358.457 401.512 357.629 401.514 356.606Z" fill="white"/>
<path d="M401.543 334.384C401.545 333.362 400.716 332.531 399.693 332.53C398.67 332.529 397.84 333.356 397.839 334.379C397.837 335.402 398.665 336.232 399.688 336.234C400.711 336.235 401.542 335.407 401.543 334.384Z" fill="white"/>
<path d="M401.574 312.163C401.576 311.14 400.748 310.31 399.725 310.308C398.702 310.307 397.871 311.135 397.87 312.157C397.868 313.18 398.697 314.01 399.72 314.012C400.743 314.013 401.573 313.185 401.574 312.163Z" fill="white"/>
<path d="M401.606 289.94C401.607 288.917 400.779 288.087 399.756 288.085C398.733 288.084 397.902 288.912 397.901 289.934C397.9 290.957 398.728 291.787 399.751 291.789C400.774 291.79 401.604 290.962 401.606 289.94Z" fill="white"/>
<path d="M401.637 267.718C401.638 266.695 400.81 265.865 399.787 265.863C398.764 265.862 397.934 266.69 397.932 267.713C397.931 268.735 398.759 269.566 399.782 269.567C400.805 269.568 401.635 268.741 401.637 267.718Z" fill="white"/>
<path d="M401.668 245.496C401.67 244.473 400.841 243.643 399.818 243.642C398.795 243.64 397.965 244.468 397.964 245.491C397.962 246.514 398.79 247.344 399.813 247.345C400.836 247.347 401.667 246.519 401.668 245.496Z" fill="white"/>
<path d="M401.699 223.273C401.701 222.25 400.873 221.42 399.85 221.419C398.827 221.417 397.996 222.245 397.995 223.268C397.993 224.291 398.822 225.121 399.845 225.122C400.868 225.124 401.698 224.296 401.699 223.273Z" fill="white"/>
<path d="M401.731 201.051C401.732 200.029 400.904 199.198 399.881 199.197C398.858 199.196 398.027 200.023 398.026 201.046C398.025 202.069 398.853 202.899 399.876 202.901C400.899 202.902 401.729 202.074 401.731 201.051Z" fill="white"/>
<path d="M401.762 178.83C401.763 177.807 400.935 176.977 399.912 176.975C398.889 176.974 398.059 177.802 398.057 178.824C398.056 179.847 398.884 180.677 399.907 180.679C400.93 180.68 401.76 179.852 401.762 178.83Z" fill="white"/>
<path d="M401.793 156.608C401.795 155.585 400.966 154.755 399.943 154.754C398.92 154.752 398.09 155.58 398.089 156.603C398.087 157.625 398.915 158.456 399.938 158.457C400.961 158.459 401.792 157.631 401.793 156.608Z" fill="white"/>
<path d="M399.975 132.532C400.998 132.533 401.826 133.364 401.824 134.386C401.823 135.409 400.992 136.237 399.97 136.236C398.947 136.234 398.118 135.404 398.12 134.381C398.121 133.358 398.952 132.53 399.975 132.532Z" fill="white"/>
<path d="M401.856 112.165C401.857 111.142 401.029 110.312 400.006 110.31C398.983 110.309 398.152 111.137 398.151 112.159C398.15 113.182 398.978 114.012 400.001 114.014C401.024 114.015 401.854 113.187 401.856 112.165Z" fill="white"/>
<path d="M401.885 89.9415C401.886 88.9187 401.058 88.0885 400.035 88.0871C399.012 88.0856 398.182 88.9135 398.18 89.9363C398.179 90.959 399.007 91.7892 400.03 91.7907C401.053 91.7921 401.884 90.9642 401.885 89.9415Z" fill="white"/>
<path d="M401.918 67.7198C401.92 66.6971 401.091 65.8668 400.068 65.8654C399.045 65.864 398.215 66.6919 398.214 67.7146C398.212 68.7373 399.04 69.5676 400.063 69.569C401.086 69.5704 401.917 68.7425 401.918 67.7198Z" fill="white"/>
<path d="M401.949 45.4981C401.951 44.4754 401.123 43.6451 400.1 43.6437C399.077 43.6423 398.246 44.4702 398.245 45.4929C398.243 46.5157 399.072 47.3459 400.095 47.3473C401.118 47.3488 401.948 46.5209 401.949 45.4981Z" fill="white"/>
<path d="M401.979 23.2764C401.98 22.2537 401.152 21.4234 400.129 21.422C399.106 21.4206 398.276 22.2485 398.274 23.2712C398.273 24.294 399.101 25.1242 400.124 25.1256C401.147 25.1271 401.977 24.2991 401.979 23.2764Z" fill="white"/>
</g>
<mask id="mask19_3763_6154" style="mask-type:luminance" maskUnits="userSpaceOnUse" x="-37" y="0" width="519" height="402">
<path d="M-36.4395 0.532913L-37 400.344L480.547 401.069L481.107 1.25847L-36.4395 0.532913Z" fill="white"/>
</mask>
<g mask="url(#mask19_3763_6154)">
<path d="M445.938 378.89C445.939 377.867 445.111 377.037 444.088 377.036C443.065 377.034 442.234 377.862 442.233 378.885C442.232 379.908 443.06 380.738 444.083 380.739C445.106 380.741 445.936 379.913 445.938 378.89Z" fill="white"/>
<path d="M445.971 356.669C445.972 355.646 445.144 354.816 444.121 354.814C443.098 354.813 442.268 355.641 442.266 356.663C442.265 357.686 443.093 358.516 444.116 358.518C445.139 358.519 445.97 357.691 445.971 356.669Z" fill="white"/>
<path d="M446 334.447C446.002 333.424 445.173 332.594 444.15 332.592C443.127 332.591 442.297 333.419 442.296 334.442C442.294 335.464 443.122 336.295 444.145 336.296C445.168 336.297 445.999 335.47 446 334.447Z" fill="white"/>
<path d="M446.031 312.225C446.033 311.202 445.205 310.372 444.182 310.371C443.159 310.369 442.328 311.197 442.327 312.22C442.325 313.243 443.154 314.073 444.177 314.074C445.2 314.076 446.03 313.248 446.031 312.225Z" fill="white"/>
<path d="M446.063 290.002C446.064 288.979 445.236 288.149 444.213 288.148C443.19 288.146 442.359 288.974 442.358 289.997C442.357 291.02 443.185 291.85 444.208 291.851C445.231 291.853 446.061 291.025 446.063 290.002Z" fill="white"/>
<path d="M446.094 267.78C446.095 266.758 445.267 265.927 444.244 265.926C443.221 265.924 442.391 266.752 442.389 267.775C442.388 268.798 443.216 269.628 444.239 269.63C445.262 269.631 446.093 268.803 446.094 267.78Z" fill="white"/>
<path d="M446.125 245.559C446.127 244.536 445.298 243.706 444.275 243.704C443.252 243.703 442.422 244.531 442.421 245.553C442.419 246.576 443.247 247.406 444.27 247.408C445.293 247.409 446.124 246.581 446.125 245.559Z" fill="white"/>
<path d="M446.156 223.336C446.158 222.313 445.33 221.483 444.307 221.481C443.284 221.48 442.453 222.308 442.452 223.33C442.45 224.353 443.279 225.183 444.302 225.185C445.325 225.186 446.155 224.358 446.156 223.336Z" fill="white"/>
<path d="M446.188 201.114C446.189 200.091 445.361 199.261 444.338 199.259C443.315 199.258 442.484 200.086 442.483 201.109C442.482 202.131 443.31 202.962 444.333 202.963C445.356 202.964 446.186 202.137 446.188 201.114Z" fill="white"/>
<path d="M446.219 178.892C446.22 177.869 445.392 177.039 444.369 177.038C443.346 177.036 442.516 177.864 442.514 178.887C442.513 179.91 443.341 180.74 444.364 180.741C445.387 180.743 446.218 179.915 446.219 178.892Z" fill="white"/>
<path d="M446.25 156.67C446.252 155.648 445.423 154.817 444.4 154.816C443.377 154.815 442.547 155.643 442.546 156.665C442.544 157.688 443.372 158.518 444.395 158.52C445.418 158.521 446.249 157.693 446.25 156.67Z" fill="white"/>
<path d="M444.432 132.594C445.455 132.596 446.283 133.426 446.281 134.449C446.28 135.472 445.449 136.299 444.427 136.298C443.404 136.297 442.575 135.466 442.577 134.444C442.578 133.421 443.409 132.593 444.432 132.594Z" fill="white"/>
<path d="M446.313 112.227C446.314 111.204 445.486 110.374 444.463 110.373C443.44 110.371 442.609 111.199 442.608 112.222C442.607 113.245 443.435 114.075 444.458 114.076C445.481 114.078 446.311 113.25 446.313 112.227Z" fill="white"/>
<path d="M446.342 90.004C446.343 88.9812 445.515 88.151 444.492 88.1496C443.469 88.1481 442.639 88.976 442.637 89.9988C442.636 91.0215 443.464 91.8517 444.487 91.8532C445.51 91.8546 446.341 91.0267 446.342 90.004Z" fill="white"/>
<path d="M446.375 67.7823C446.377 66.7596 445.548 65.9293 444.525 65.9279C443.502 65.9265 442.672 66.7544 442.671 67.7771C442.669 68.7998 443.497 69.6301 444.52 69.6315C445.543 69.6329 446.374 68.805 446.375 67.7823Z" fill="white"/>
<path d="M446.406 45.5606C446.408 44.5379 445.58 43.7076 444.557 43.7062C443.534 43.7048 442.703 44.5327 442.702 45.5554C442.7 46.5782 443.529 47.4084 444.552 47.4098C445.575 47.4113 446.405 46.5834 446.406 45.5606Z" fill="white"/>
<path d="M446.436 23.3389C446.437 22.3162 445.609 21.4859 444.586 21.4845C443.563 21.4831 442.733 22.311 442.731 23.3337C442.73 24.3565 443.558 25.1867 444.581 25.1881C445.604 25.1896 446.434 24.3616 446.436 23.3389Z" fill="white"/>
</g>
<mask id="mask20_3763_6154" style="mask-type:luminance" maskUnits="userSpaceOnUse" x="-37" y="0" width="519" height="402">
<path d="M-36.4395 0.532913L-37 400.344L480.547 401.069L481.107 1.25847L-36.4395 0.532913Z" fill="white"/>
</mask>
<g mask="url(#mask20_3763_6154)">
<path d="M423.694 389.971C423.695 388.948 422.867 388.118 421.844 388.116C420.821 388.115 419.99 388.943 419.989 389.966C419.987 390.988 420.816 391.819 421.839 391.82C422.862 391.821 423.692 390.993 423.694 389.971Z" fill="white"/>
<path d="M423.727 367.749C423.728 366.726 422.9 365.896 421.877 365.895C420.854 365.893 420.024 366.721 420.022 367.744C420.021 368.767 420.849 369.597 421.872 369.598C422.895 369.6 423.725 368.772 423.727 367.749Z" fill="white"/>
<path d="M423.756 345.527C423.758 344.505 422.929 343.674 421.906 343.673C420.883 343.672 420.053 344.499 420.051 345.522C420.05 346.545 420.878 347.375 421.901 347.377C422.924 347.378 423.755 346.55 423.756 345.527Z" fill="white"/>
<path d="M423.787 323.306C423.789 322.283 422.961 321.453 421.938 321.451C420.915 321.45 420.084 322.278 420.083 323.301C420.081 324.323 420.909 325.154 421.932 325.155C422.955 325.156 423.786 324.328 423.787 323.306Z" fill="white"/>
<path d="M423.819 301.083C423.82 300.06 422.992 299.23 421.969 299.228C420.946 299.227 420.115 300.055 420.114 301.077C420.112 302.1 420.941 302.93 421.964 302.932C422.987 302.933 423.817 302.105 423.819 301.083Z" fill="white"/>
<path d="M423.85 278.861C423.851 277.838 423.023 277.008 422 277.006C420.977 277.005 420.147 277.833 420.145 278.856C420.144 279.878 420.972 280.709 421.995 280.71C423.018 280.712 423.848 279.884 423.85 278.861Z" fill="white"/>
<path d="M423.881 256.639C423.883 255.617 423.054 254.786 422.031 254.785C421.008 254.783 420.178 255.611 420.176 256.634C420.175 257.657 421.003 258.487 422.026 258.488C423.049 258.49 423.88 257.662 423.881 256.639Z" fill="white"/>
<path d="M423.912 234.416C423.914 233.393 423.086 232.563 422.063 232.562C421.04 232.56 420.209 233.388 420.208 234.411C420.206 235.434 421.034 236.264 422.057 236.265C423.08 236.267 423.911 235.439 423.912 234.416Z" fill="white"/>
<path d="M423.944 212.194C423.945 211.172 423.117 210.341 422.094 210.34C421.071 210.339 420.24 211.166 420.239 212.189C420.237 213.212 421.066 214.042 422.089 214.044C423.112 214.045 423.942 213.217 423.944 212.194Z" fill="white"/>
<path d="M423.975 189.973C423.976 188.95 423.148 188.12 422.125 188.118C421.102 188.117 420.272 188.945 420.27 189.968C420.269 190.99 421.097 191.82 422.12 191.822C423.143 191.823 423.973 190.995 423.975 189.973Z" fill="white"/>
<path d="M424.006 167.751C424.008 166.728 423.179 165.898 422.156 165.897C421.133 165.895 420.303 166.723 420.301 167.746C420.3 168.769 421.128 169.599 422.151 169.6C423.174 169.602 424.005 168.774 424.006 167.751Z" fill="white"/>
<path d="M424.037 145.528C424.039 144.506 423.211 143.675 422.188 143.674C421.165 143.673 420.334 144.5 420.333 145.523C420.331 146.546 421.159 147.376 422.182 147.378C423.205 147.379 424.036 146.551 424.037 145.528Z" fill="white"/>
<path d="M424.069 123.306C424.07 122.283 423.242 121.453 422.219 121.452C421.196 121.45 420.365 122.278 420.364 123.301C420.362 124.324 421.191 125.154 422.214 125.155C423.237 125.157 424.067 124.329 424.069 123.306Z" fill="white"/>
<path d="M424.098 101.085C424.099 100.062 423.271 99.2315 422.248 99.2301C421.225 99.2287 420.395 100.057 420.393 101.079C420.392 102.102 421.22 102.932 422.243 102.934C423.266 102.935 424.096 102.107 424.098 101.085Z" fill="white"/>
<path d="M424.131 78.8628C424.133 77.8401 423.304 77.0099 422.281 77.0084C421.258 77.007 420.428 77.8349 420.426 78.8577C420.425 79.8804 421.253 80.7106 422.276 80.7121C423.299 80.7135 424.13 79.8856 424.131 78.8628Z" fill="white"/>
<path d="M424.162 56.6412C424.164 55.6184 423.336 54.7882 422.313 54.7868C421.29 54.7853 420.459 55.6132 420.458 56.636C420.456 57.6587 421.284 58.489 422.307 58.4904C423.33 58.4918 424.161 57.6639 424.162 56.6412Z" fill="white"/>
<path d="M424.192 34.4185C424.193 33.3958 423.365 32.5656 422.342 32.5641C421.319 32.5627 420.488 33.3906 420.487 34.4133C420.486 35.436 421.314 36.2663 422.337 36.2677C423.36 36.2692 424.19 35.4412 424.192 34.4185Z" fill="white"/>
<path d="M424.225 12.1968C424.226 11.1741 423.398 10.3439 422.375 10.3424C421.352 10.341 420.522 11.1689 420.52 12.1916C420.519 13.2144 421.347 14.0446 422.37 14.0461C423.393 14.0475 424.223 13.2196 424.225 12.1968Z" fill="white"/>
</g>
<mask id="mask21_3763_6154" style="mask-type:luminance" maskUnits="userSpaceOnUse" x="-37" y="0" width="519" height="402">
<path d="M-36.4395 0.532913L-37 400.344L480.547 401.069L481.107 1.25847L-36.4395 0.532913Z" fill="white"/>
</mask>
<g mask="url(#mask21_3763_6154)">
<path d="M468.151 390.033C468.152 389.011 467.324 388.18 466.301 388.179C465.278 388.177 464.447 389.005 464.446 390.028C464.445 391.051 465.273 391.881 466.296 391.882C467.319 391.884 468.149 391.056 468.151 390.033Z" fill="white"/>
<path d="M468.184 367.811C468.185 366.788 467.357 365.958 466.334 365.957C465.311 365.955 464.481 366.783 464.479 367.806C464.478 368.829 465.306 369.659 466.329 369.66C467.352 369.662 468.182 368.834 468.184 367.811Z" fill="white"/>
<path d="M468.213 345.59C468.215 344.567 467.386 343.737 466.363 343.735C465.34 343.734 464.51 344.562 464.508 345.585C464.507 346.607 465.335 347.438 466.358 347.439C467.381 347.441 468.212 346.613 468.213 345.59Z" fill="white"/>
<path d="M468.244 323.368C468.246 322.345 467.418 321.515 466.395 321.513C465.372 321.512 464.541 322.34 464.54 323.363C464.538 324.385 465.366 325.216 466.389 325.217C467.412 325.218 468.243 324.39 468.244 323.368Z" fill="white"/>
<path d="M468.276 301.145C468.277 300.122 467.449 299.292 466.426 299.291C465.403 299.289 464.572 300.117 464.571 301.14C464.57 302.163 465.398 302.993 466.421 302.994C467.444 302.996 468.274 302.168 468.276 301.145Z" fill="white"/>
<path d="M468.307 278.923C468.308 277.901 467.48 277.07 466.457 277.069C465.434 277.068 464.604 277.895 464.602 278.918C464.601 279.941 465.429 280.771 466.452 280.773C467.475 280.774 468.305 279.946 468.307 278.923Z" fill="white"/>
<path d="M468.338 256.702C468.34 255.679 467.511 254.849 466.488 254.847C465.465 254.846 464.635 255.674 464.633 256.697C464.632 257.719 465.46 258.55 466.483 258.551C467.506 258.552 468.337 257.724 468.338 256.702Z" fill="white"/>
<path d="M468.369 234.479C468.371 233.456 467.543 232.626 466.52 232.624C465.497 232.623 464.666 233.451 464.665 234.473C464.663 235.496 465.491 236.326 466.514 236.328C467.537 236.329 468.368 235.501 468.369 234.479Z" fill="white"/>
<path d="M468.401 212.257C468.402 211.234 467.574 210.404 466.551 210.402C465.528 210.401 464.697 211.229 464.696 212.252C464.695 213.274 465.523 214.105 466.546 214.106C467.569 214.108 468.399 213.28 468.401 212.257Z" fill="white"/>
<path d="M468.432 190.035C468.433 189.012 467.605 188.182 466.582 188.181C465.559 188.179 464.729 189.007 464.727 190.03C464.726 191.053 465.554 191.883 466.577 191.884C467.6 191.886 468.43 191.058 468.432 190.035Z" fill="white"/>
<path d="M468.463 167.814C468.465 166.791 467.636 165.961 466.613 165.959C465.59 165.958 464.76 166.786 464.758 167.808C464.757 168.831 465.585 169.661 466.608 169.663C467.631 169.664 468.462 168.836 468.463 167.814Z" fill="white"/>
<path d="M468.494 145.591C468.496 144.568 467.668 143.738 466.645 143.736C465.622 143.735 464.791 144.563 464.79 145.586C464.788 146.608 465.616 147.439 466.639 147.44C467.662 147.442 468.493 146.614 468.494 145.591Z" fill="white"/>
<path d="M468.526 123.369C468.527 122.346 467.699 121.516 466.676 121.514C465.653 121.513 464.822 122.341 464.821 123.364C464.82 124.386 465.648 125.216 466.671 125.218C467.694 125.219 468.524 124.391 468.526 123.369Z" fill="white"/>
<path d="M468.555 101.147C468.556 100.124 467.728 99.294 466.705 99.2926C465.682 99.2912 464.852 100.119 464.85 101.142C464.849 102.165 465.677 102.995 466.7 102.996C467.723 102.998 468.553 102.17 468.555 101.147Z" fill="white"/>
<path d="M468.588 78.9253C468.59 77.9026 467.761 77.0724 466.738 77.0709C465.715 77.0695 464.885 77.8974 464.883 78.9202C464.882 79.9429 465.71 80.7731 466.733 80.7746C467.756 80.776 468.587 79.9481 468.588 78.9253Z" fill="white"/>
<path d="M468.619 56.7037C468.621 55.6809 467.793 54.8507 466.77 54.8493C465.747 54.8478 464.916 55.6757 464.915 56.6985C464.913 57.7212 465.741 58.5515 466.764 58.5529C467.787 58.5543 468.618 57.7264 468.619 56.7037Z" fill="white"/>
<path d="M468.649 34.481C468.65 33.4583 467.822 32.6281 466.799 32.6266C465.776 32.6252 464.945 33.4531 464.944 34.4758C464.943 35.4985 465.771 36.3288 466.794 36.3302C467.817 36.3317 468.647 35.5037 468.649 34.481Z" fill="white"/>
<path d="M468.682 12.2588C468.683 11.2361 467.855 10.4059 466.832 10.4045C465.809 10.403 464.979 11.2309 464.977 12.2537C464.976 13.2764 465.804 14.1066 466.827 14.1081C467.85 14.1095 468.68 13.2816 468.682 12.2588Z" fill="white"/>
</g>
</svg>
