<svg width="25" height="24" viewBox="0 0 25 24" fill="none" xmlns="http://www.w3.org/2000/svg">
<g clip-path="url(#clip0_3661_7318)">
<path d="M23.75 19.5C23.3 19.5 23 19.2 23 18.75V9C23 8.55 23.3 8.25 23.75 8.25C24.2 8.25 24.5 8.55 24.5 9V18.75C24.5 19.2 24.2 19.5 23.75 19.5Z" fill="white"/>
<path d="M12.5 15.7499C12.35 15.7499 12.275 15.7499 12.125 15.6749L0.875 9.6749C0.65 9.5249 0.5 9.2999 0.5 8.9999C0.5 8.6999 0.65 8.4749 0.875 8.3249L12.125 2.3249C12.35 2.1749 12.575 2.1749 12.8 2.3249L24.05 8.3249C24.275 8.4749 24.425 8.6999 24.425 8.9999C24.425 9.2999 24.275 9.5249 24.05 9.6749L12.8 15.6749C12.725 15.7499 12.65 15.7499 12.5 15.7499Z" fill="white"/>
<path d="M13.55 16.9502C13.25 17.1752 12.875 17.2502 12.5 17.2502C12.125 17.2502 11.75 17.1752 11.45 16.9502L5 13.5752V16.5002C5 18.8252 8.675 21.0002 12.5 21.0002C16.325 21.0002 20 18.8252 20 16.5002V13.5752L13.55 16.9502Z" fill="white"/>
</g>
<defs>
<clipPath id="clip0_3661_7318">
<rect width="24" height="24" fill="white" transform="translate(0.5)"/>
</clipPath>
</defs>
</svg>
