<svg width="24" height="23" viewBox="0 0 24 23" fill="none" xmlns="http://www.w3.org/2000/svg">
<path d="M4.30728 15.9419H2.64062V18.4152H4.30728V15.9419Z" fill="#545760"/>
<path d="M4.30728 11.48H2.64062V13.9533H4.30728V11.48Z" fill="#545760"/>
<path d="M10.9515 9.82031H8.67188V12.2937H10.9515V9.82031Z" fill="#545760"/>
<path d="M10.9515 5.3584H8.67188V7.83174H10.9515V5.3584Z" fill="#545760"/>
<path d="M11.5582 14.3291H8.67188V19.484H11.5582V14.3291Z" fill="#545760"/>
<path d="M21.36 15.9419H19.6934V18.4152H21.36V15.9419Z" fill="#545760"/>
<path d="M21.36 11.48H19.6934V13.9533H21.36V11.48Z" fill="#545760"/>
<path d="M15.3285 9.82031H13.0488V12.2937H15.3285V9.82031Z" fill="#545760"/>
<path d="M15.3285 5.3584H13.0488V7.83174H15.3285V5.3584Z" fill="#545760"/>
<path d="M15.3277 14.3291H12.4414V19.484H15.3277V14.3291Z" fill="#545760"/>
<path d="M18.2194 7.49045V2.85621L12 0L5.78061 2.85622V7.49046H0V22.7932H24V7.49045H18.2194ZM5.78061 21.24H1.16493V8.65537H5.78061V21.24ZM17.0545 21.24H6.94553V3.60306L12 1.28185L17.0545 3.60306V21.24ZM22.8351 21.24H18.2194V8.65537H22.8351V21.24Z" fill="#545760"/>
</svg>
