<svg width="16" height="16" viewBox="0 0 16 16" fill="none" xmlns="http://www.w3.org/2000/svg">
<path d="M6.9668 12.3872C6.9668 12.9565 7.42976 13.4195 7.99905 13.4195C8.56835 13.4195 9.03131 12.9565 9.03131 12.3872C9.03131 11.8179 8.56835 11.355 7.99905 11.355C7.42976 11.355 6.9668 11.8179 6.9668 12.3872ZM8.51518 12.3872C8.51518 12.6719 8.2837 12.9034 7.99905 12.9034C7.71441 12.9034 7.48293 12.6719 7.48293 12.3872C7.48293 12.1026 7.71441 11.8711 7.99905 11.8711C8.2837 11.8711 8.51518 12.1026 8.51518 12.3872Z" fill="#A90466"/>
<path d="M10.5806 3.87061H10.0645V5.16093H10.5806V3.87061Z" fill="#A90466"/>
<path d="M13.4198 5.52564V2.06396H12.9037V5.31196L12.2051 6.01055L12.57 6.37545L13.4198 5.52564Z" fill="#A90466"/>
<path d="M15.4842 7.07494V4.12939H14.9681V6.86127L14.2695 7.55985L14.6344 7.92475L15.4842 7.07494Z" fill="#A90466"/>
<path d="M10.323 3.35454C10.7499 3.35454 11.0972 3.00718 11.0972 2.58035C11.0972 2.15351 10.7499 1.80615 10.323 1.80615C9.89618 1.80615 9.54883 2.15351 9.54883 2.58035C9.54883 3.00718 9.89618 3.35454 10.323 3.35454ZM10.323 2.32228C10.4652 2.32228 10.5811 2.43815 10.5811 2.58035C10.5811 2.72254 10.4652 2.83841 10.323 2.83841C10.1808 2.83841 10.065 2.72254 10.065 2.58035C10.065 2.43815 10.1808 2.32228 10.323 2.32228Z" fill="#A90466"/>
<path d="M8.25832 2.06396H7.74219V4.90267H8.25832V2.06396Z" fill="#A90466"/>
<path d="M7.9988 1.54839C8.42564 1.54839 8.773 1.20103 8.773 0.774194C8.773 0.347355 8.42564 0 7.9988 0C7.57196 0 7.22461 0.347355 7.22461 0.774194C7.22461 1.20103 7.57196 1.54839 7.9988 1.54839ZM7.9988 0.516129C8.141 0.516129 8.25687 0.632 8.25687 0.774194C8.25687 0.916387 8.141 1.03226 7.9988 1.03226C7.85661 1.03226 7.74074 0.916387 7.74074 0.774194C7.74074 0.632 7.85661 0.516129 7.9988 0.516129Z" fill="#A90466"/>
<path d="M13.1609 1.54839C13.5878 1.54839 13.9351 1.20103 13.9351 0.774194C13.9351 0.347355 13.5878 0 13.1609 0C12.7341 0 12.3867 0.347355 12.3867 0.774194C12.3867 1.20103 12.7341 1.54839 13.1609 1.54839ZM13.1609 0.516129C13.3031 0.516129 13.419 0.632 13.419 0.774194C13.419 0.916387 13.3031 1.03226 13.1609 1.03226C13.0187 1.03226 12.9028 0.916387 12.9028 0.774194C12.9028 0.632 13.0187 0.516129 13.1609 0.516129Z" fill="#A90466"/>
<path d="M15.2254 3.61235C15.6522 3.61235 15.9996 3.265 15.9996 2.83816C15.9996 2.41132 15.6522 2.06396 15.2254 2.06396C14.7985 2.06396 14.4512 2.41132 14.4512 2.83816C14.4512 3.265 14.7985 3.61235 15.2254 3.61235ZM15.2254 2.58009C15.3676 2.58009 15.4834 2.69596 15.4834 2.83816C15.4834 2.98035 15.3676 3.09622 15.2254 3.09622C15.0832 3.09622 14.9673 2.98035 14.9673 2.83816C14.9673 2.69596 15.0832 2.58009 15.2254 2.58009Z" fill="#A90466"/>
<path d="M5.93605 3.87061H5.41992V5.41899H5.93605V3.87061Z" fill="#A90466"/>
<path d="M2.58008 2.06396V5.52564L3.42988 6.37545L3.79479 6.01055L3.09621 5.31196V2.06396H2.58008Z" fill="#A90466"/>
<path d="M0.515625 4.12939V7.07494L1.88156 8.44088L2.24646 8.07597L1.03175 6.86127V4.12939H0.515625Z" fill="#A90466"/>
<path d="M5.67849 3.35454C6.10533 3.35454 6.45268 3.00718 6.45268 2.58035C6.45268 2.15351 6.10533 1.80615 5.67849 1.80615C5.25165 1.80615 4.9043 2.15351 4.9043 2.58035C4.9043 3.00718 5.25165 3.35454 5.67849 3.35454ZM5.67849 2.32228C5.82068 2.32228 5.93655 2.43815 5.93655 2.58035C5.93655 2.72254 5.82068 2.83841 5.67849 2.83841C5.5363 2.83841 5.42043 2.72254 5.42043 2.58035C5.42043 2.43815 5.5363 2.32228 5.67849 2.32228Z" fill="#A90466"/>
<path d="M2.83865 1.54839C3.26549 1.54839 3.61284 1.20103 3.61284 0.774194C3.61284 0.347355 3.26549 0 2.83865 0C2.41181 0 2.06445 0.347355 2.06445 0.774194C2.06445 1.20103 2.41181 1.54839 2.83865 1.54839ZM2.83865 0.516129C2.98084 0.516129 3.09671 0.632 3.09671 0.774194C3.09671 0.916387 2.98084 1.03226 2.83865 1.03226C2.69645 1.03226 2.58058 0.916387 2.58058 0.774194C2.58058 0.632 2.69645 0.516129 2.83865 0.516129Z" fill="#A90466"/>
<path d="M0.774194 3.61235C1.20103 3.61235 1.54839 3.265 1.54839 2.83816C1.54839 2.41132 1.20103 2.06396 0.774194 2.06396C0.347355 2.06396 0 2.41132 0 2.83816C0 3.265 0.347355 3.61235 0.774194 3.61235ZM0.774194 2.58009C0.916387 2.58009 1.03226 2.69596 1.03226 2.83816C1.03226 2.98035 0.916387 3.09622 0.774194 3.09622C0.632 3.09622 0.516129 2.98035 0.516129 2.83816C0.516129 2.69596 0.632 2.58009 0.774194 2.58009Z" fill="#A90466"/>
<path d="M10.7916 11.0522L10.3261 11.2752C10.3653 11.3573 10.4006 11.4417 10.4311 11.5281L10.4773 11.6592L11.0969 11.8141V12.9593L10.4773 13.1142L10.4311 13.2453C10.4006 13.332 10.3655 13.4161 10.3261 13.4982L10.2662 13.6233L10.5947 14.1712L9.78489 14.981L9.23702 14.6525L9.11186 14.7124C9.02979 14.7516 8.9454 14.787 8.85895 14.8174L8.72786 14.8636L8.57276 15.4837H7.42747L7.27263 14.8641L7.14153 14.8179C7.05482 14.7875 6.9707 14.7524 6.88863 14.7129L6.76347 14.653L6.2156 14.9815L5.26334 14.0293L4.89844 14.3942L6.1356 15.6313L6.79444 15.2362C6.80915 15.2424 6.82386 15.2486 6.83857 15.2546L7.02437 15.9999H8.97586L9.16218 15.2548C9.17689 15.2489 9.1916 15.2427 9.20631 15.2365L9.86515 15.6316L11.2448 14.252L10.8497 13.5931C10.8559 13.5784 10.862 13.5637 10.868 13.549L11.613 13.3627V11.4112L10.868 11.2249C10.8442 11.1668 10.8187 11.109 10.7916 11.0522Z" fill="#A90466"/>
<path d="M4.38672 11.4116V13.3631L5.13175 13.5494C5.15523 13.6077 5.18078 13.6653 5.20814 13.722L5.67369 13.4991C5.63446 13.417 5.59911 13.3326 5.56865 13.2462L5.52246 13.1151L4.90285 12.96V11.8147L5.52246 11.6598L5.56865 11.5287C5.59911 11.442 5.6342 11.3579 5.67369 11.2758L5.73356 11.1507L5.40504 10.6028L6.21485 9.79299L6.76272 10.1215L6.88788 10.0616C6.96994 10.0224 7.05433 9.98706 7.14078 9.95661L7.27188 9.91041L7.42672 9.2908H8.57201L8.72685 9.91041L8.85794 9.95661C8.94465 9.98706 9.02878 10.0222 9.11085 10.0616L9.23601 10.1215L9.78388 9.79299L10.7361 10.7453L11.101 10.3803L9.86388 9.14319L9.20504 9.53828C9.19033 9.53209 9.17562 9.5259 9.16091 9.51996L8.97536 8.77441H7.02388L6.83756 9.51945C6.82285 9.52538 6.80814 9.53158 6.79343 9.53777L6.13459 9.14267L4.75498 10.5223L5.15007 11.1811C5.14388 11.1958 5.13769 11.2105 5.13175 11.2253L4.38672 11.4116Z" fill="#A90466"/>
<path d="M14.9662 9.82692C14.9665 9.82021 14.9677 9.81324 14.9677 9.80653C14.9677 8.68498 14.0684 7.77143 12.9533 7.74459C12.7463 7.38666 12.401 7.11982 11.9905 7.01634C11.6901 6.22305 10.9218 5.6775 10.0645 5.6775C9.74581 5.6775 9.43174 5.75234 9.14606 5.89479C8.74245 5.58692 8.25058 5.41943 7.74194 5.41943C7.14684 5.41943 6.57781 5.64937 6.14839 6.05453C5.91897 5.9784 5.67406 5.93556 5.41935 5.93556C4.27252 5.93556 3.29961 6.77685 3.12619 7.90227C2.65316 8.11518 2.28723 8.52601 2.13806 9.04163C0.943484 9.13634 0 10.1366 0 11.3549C0 12.6354 1.04206 13.6775 2.32258 13.6775H3.87097V13.1614H2.32258C1.32645 13.1614 0.516129 12.351 0.516129 11.3549C0.516129 10.3588 1.32645 9.54847 2.32258 9.54847C2.87406 9.54847 3.38813 9.79569 3.73316 10.2264L4.13626 9.90382C3.768 9.44395 3.24929 9.15027 2.67819 9.06253C2.87148 8.58459 3.33471 8.25814 3.87097 8.25814C4.33006 8.25814 4.75819 8.50537 4.98865 8.90305L5.4351 8.64447C5.11277 8.08782 4.51355 7.74201 3.87097 7.74201C3.80852 7.74201 3.7471 7.74589 3.68619 7.75208C3.90684 6.9944 4.60697 6.45169 5.41935 6.45169C6.41548 6.45169 7.22581 7.26201 7.22581 8.25814H7.74194C7.74194 7.43337 7.30839 6.7095 6.65884 6.29737C6.96903 6.06485 7.34839 5.93556 7.74194 5.93556C8.18529 5.93556 8.61265 6.09969 8.94555 6.39801L9.08929 6.52679L9.25342 6.42537C9.49858 6.27389 9.7791 6.19363 10.0645 6.19363C10.6268 6.19363 11.1375 6.50718 11.4085 6.98279C10.6511 7.08343 10.0645 7.73195 10.0645 8.51621H10.5806C10.5806 7.94692 11.0436 7.48395 11.6129 7.48395C12.1822 7.48395 12.6452 7.94692 12.6452 8.51621C12.6452 9.0855 12.1822 9.54847 11.6129 9.54847V10.0646C12.4668 10.0646 13.1613 9.37014 13.1613 8.51621C13.1613 8.43518 13.153 8.35621 13.1412 8.27827C13.8191 8.38356 14.3523 8.92885 14.4382 9.61298C14.2769 9.57247 14.1092 9.54847 13.9355 9.54847C13.2049 9.54847 12.5435 9.9224 12.1659 10.549L12.608 10.8153C12.8914 10.3451 13.3874 10.0646 13.9355 10.0646C14.7894 10.0646 15.4839 10.759 15.4839 11.613C15.4839 12.4669 14.7894 13.1614 13.9355 13.1614H12.129V13.6775H13.9355C15.0738 13.6775 16 12.7513 16 11.613C16 10.8501 15.5832 10.1843 14.9662 9.82692Z" fill="#A90466"/>
<path d="M14.1939 11.6128H13.6777V12.1289H14.1939V11.6128Z" fill="#A90466"/>
<path d="M7.742 10.3228V10.3406C6.72522 10.4683 5.93555 11.3364 5.93555 12.3873C5.93555 13.5256 6.86174 14.4518 8.00006 14.4518C9.0509 14.4518 9.91903 13.6621 10.0468 12.6453H10.0646V12.1292H10.0468C9.92987 11.1971 9.19026 10.4577 8.25813 10.3406V10.3228H7.742ZM9.54845 12.3873C9.54845 13.2412 8.854 13.9357 8.00006 13.9357C7.14613 13.9357 6.45168 13.2412 6.45168 12.3873C6.45168 11.5333 7.14613 10.8389 8.00006 10.8389C8.854 10.8389 9.54845 11.5333 9.54845 12.3873Z" fill="#A90466"/>
<path d="M2.58058 11.8706H2.06445V12.3867H2.58058V11.8706Z" fill="#A90466"/>
<path d="M6.45168 7.4834H5.93555V7.99953H6.45168V7.4834Z" fill="#A90466"/>
<path d="M9.54933 7.22559H9.0332V7.74171H9.54933V7.22559Z" fill="#A90466"/>
</svg>
