<svg width="26" height="22" viewBox="0 0 26 22" fill="none" xmlns="http://www.w3.org/2000/svg">
<path d="M18.4545 20.6363V18.4545C18.4545 17.2971 17.9948 16.1872 17.1765 15.3689C16.3581 14.5506 15.2482 14.0908 14.0909 14.0908H5.36364C4.20633 14.0908 3.09642 14.5506 2.27808 15.3689C1.45974 16.1872 1 17.2971 1 18.4545V20.6363" stroke="black" stroke-width="2" stroke-linecap="round" stroke-linejoin="round"/>
<path d="M9.72692 9.72727C12.1369 9.72727 14.0906 7.77361 14.0906 5.36364C14.0906 2.95367 12.1369 1 9.72692 1C7.31695 1 5.36328 2.95367 5.36328 5.36364C5.36328 7.77361 7.31695 9.72727 9.72692 9.72727Z" stroke="black" stroke-width="2" stroke-linecap="round" stroke-linejoin="round"/>
<path d="M24.9993 20.6361V18.4542C24.9986 17.4874 24.6768 16.5482 24.0844 15.784C23.4921 15.0199 22.6627 14.4741 21.7266 14.2324" stroke="black" stroke-width="2" stroke-linecap="round" stroke-linejoin="round"/>
<path d="M17.3633 1.1416C18.3019 1.38193 19.1339 1.92782 19.728 2.69321C20.3221 3.4586 20.6446 4.39996 20.6446 5.36887C20.6446 6.33779 20.3221 7.27914 19.728 8.04454C19.1339 8.80993 18.3019 9.35582 17.3633 9.59615" stroke="black" stroke-width="2" stroke-linecap="round" stroke-linejoin="round"/>
</svg>
