<svg width="74" height="73" viewBox="0 0 74 73" fill="none" xmlns="http://www.w3.org/2000/svg">
<path d="M37.3262 0C17.168 0 0.826172 16.3419 0.826172 36.5C0.826172 56.6581 17.168 73 37.3262 73C57.4843 73 73.8262 56.6581 73.8262 36.5C73.8262 16.3419 57.4843 0 37.3262 0ZM49.9421 38.4348L31.6921 49.841C31.3222 50.0716 30.9035 50.1875 30.4824 50.1875C30.1015 50.1875 29.7205 50.0928 29.3774 49.9012C28.6511 49.4991 28.2012 48.7361 28.2012 47.9062V25.0938C28.2012 24.2639 28.6511 23.5009 29.3774 23.0988C30.097 22.6933 30.9859 22.7201 31.6921 23.159L49.9421 34.5652C50.6082 34.983 51.0137 35.7137 51.0137 36.5C51.0137 37.2863 50.6082 38.0172 49.9421 38.4348Z" fill="white"/>
</svg>
